<mxfile host="app.diagrams.net" modified="2023-12-29T02:55:36.116Z" agent="Mozilla/5.0 (Macintosh; Intel Mac OS X 10_15_7) AppleWebKit/537.36 (KHTML, like Gecko) Chrome/120.0.0.0 Safari/537.36" etag="3T5jbH6YmuFVhjD22gt5" version="22.1.15" type="github">
  <diagram id="C5RBs43oDa-KdzZeNtuy" name="Page-1">
    <mxGraphModel dx="858" dy="436" grid="1" gridSize="10" guides="1" tooltips="1" connect="1" arrows="1" fold="1" page="1" pageScale="1" pageWidth="827" pageHeight="1169" math="0" shadow="0">
      <root>
        <mxCell id="WIyWlLk6GJQsqaUBKTNV-0" />
        <mxCell id="WIyWlLk6GJQsqaUBKTNV-1" parent="WIyWlLk6GJQsqaUBKTNV-0" />
        <mxCell id="ntf6u-JNqa4Ea9aM1wRL-29" value="" style="edgeStyle=orthogonalEdgeStyle;rounded=0;orthogonalLoop=1;jettySize=auto;html=1;" edge="1" parent="WIyWlLk6GJQsqaUBKTNV-1" source="ntf6u-JNqa4Ea9aM1wRL-0" target="ntf6u-JNqa4Ea9aM1wRL-28">
          <mxGeometry relative="1" as="geometry" />
        </mxCell>
        <mxCell id="ntf6u-JNqa4Ea9aM1wRL-0" value="界面生成" style="rounded=1;whiteSpace=wrap;html=1;" vertex="1" parent="WIyWlLk6GJQsqaUBKTNV-1">
          <mxGeometry x="260" y="65" width="120" height="60" as="geometry" />
        </mxCell>
        <mxCell id="ntf6u-JNqa4Ea9aM1wRL-4" value="" style="edgeStyle=orthogonalEdgeStyle;rounded=0;orthogonalLoop=1;jettySize=auto;html=1;" edge="1" parent="WIyWlLk6GJQsqaUBKTNV-1" source="ntf6u-JNqa4Ea9aM1wRL-1" target="ntf6u-JNqa4Ea9aM1wRL-3">
          <mxGeometry relative="1" as="geometry" />
        </mxCell>
        <mxCell id="ntf6u-JNqa4Ea9aM1wRL-1" value="点击按钮" style="whiteSpace=wrap;html=1;rounded=1;" vertex="1" parent="WIyWlLk6GJQsqaUBKTNV-1">
          <mxGeometry x="260" y="260" width="120" height="60" as="geometry" />
        </mxCell>
        <mxCell id="ntf6u-JNqa4Ea9aM1wRL-6" value="错误" style="edgeStyle=orthogonalEdgeStyle;rounded=0;orthogonalLoop=1;jettySize=auto;html=1;" edge="1" parent="WIyWlLk6GJQsqaUBKTNV-1" source="ntf6u-JNqa4Ea9aM1wRL-3">
          <mxGeometry relative="1" as="geometry">
            <mxPoint x="418.42175353239645" y="430" as="targetPoint" />
          </mxGeometry>
        </mxCell>
        <mxCell id="ntf6u-JNqa4Ea9aM1wRL-19" value="" style="edgeStyle=orthogonalEdgeStyle;rounded=0;orthogonalLoop=1;jettySize=auto;html=1;" edge="1" parent="WIyWlLk6GJQsqaUBKTNV-1" source="ntf6u-JNqa4Ea9aM1wRL-3" target="ntf6u-JNqa4Ea9aM1wRL-18">
          <mxGeometry relative="1" as="geometry" />
        </mxCell>
        <mxCell id="ntf6u-JNqa4Ea9aM1wRL-20" value="正确" style="edgeLabel;html=1;align=center;verticalAlign=middle;resizable=0;points=[];" vertex="1" connectable="0" parent="ntf6u-JNqa4Ea9aM1wRL-19">
          <mxGeometry x="-0.3" relative="1" as="geometry">
            <mxPoint y="1" as="offset" />
          </mxGeometry>
        </mxCell>
        <mxCell id="ntf6u-JNqa4Ea9aM1wRL-3" value="判断正确" style="rhombus;whiteSpace=wrap;html=1;rounded=1;" vertex="1" parent="WIyWlLk6GJQsqaUBKTNV-1">
          <mxGeometry x="280" y="390" width="80" height="80" as="geometry" />
        </mxCell>
        <mxCell id="ntf6u-JNqa4Ea9aM1wRL-7" value="" style="shape=image;verticalLabelPosition=bottom;labelBackgroundColor=default;verticalAlign=top;aspect=fixed;imageAspect=0;image=data:image/png,iVBORw0KGgoAAAANSUhEUgAAAXcAAABuCAYAAADcblMZAAABYmlDQ1BJQ0MgUHJvZmlsZQAAKJF1kL1Lw2AQxp9qpWiDtOLQQaWCIkKVmlbBsdZP6FAaxY8tTT9STOtLEhEHwcE/QFCcnNX/IIuDg+5CQcHJRRwchThoifc2alvFeznux8M99x4HtAkyY5oXQLli6pmFmfDa+kbY9wwB/ejEAIZlxWCJdDpFLfiurWHfwcNrdYzPOvWfBzerxtNL95A6GHib+tvfEl25vKFQ/aCMK0w3AU+UOL1jMs77xL06LUV8zLno8gXnrMuX9Z7lTJL4ljigqHKO+JE4km3Si01c1raVrx349kK+siJRDVH2YRZzSNELQ4KIGCYwjUVI/3jidU8SW2DYhY4SilBhkjtBCoOGPPESKlAwjgixiCify2/9+4YNTb0BJq/pq1BDKxwBlg0EDxrayB7QMw9cHTJZl38u67G9RiEmuuy3gI4Tx3ldBXyjQO3ecd4tx6mdAe0P5LU/AcXqY4GSHTNwAAAAOGVYSWZNTQAqAAAACAABh2kABAAAAAEAAAAaAAAAAAACoAIABAAAAAEAAAF3oAMABAAAAAEAAABuAAAAAO1akMIAADiMSURBVHgB7X0HYF3FlfYnvff09J66ZFu2JEvuDeNCM5gWCAumLiULJCwksAmB9LL5kyxJIMlmQzY92WwICSRLIEAoARIgJPSOaaEYG9xtyZZs9a6nJ73/O1c68ujqVRVbsmbs0cycKffe79733bkzZ86kYfRc2ug1ZVuyCFgELAKTEoHIaF31SAl5f9Uf6XFGCy/bjkXAImARSIWAUynrRnYkdTFc0ky1nlnejLsvxqYtAhYBi8DBiEA0oo4mi3XtqZR12kiVaJMtb5Yz49FOfKT50dq0MouARcAiMNYIJCLcVPITldVrSbZc0j33RAQsB9YyGurJaGjKzbjm29AiYBGwCByMCLgJ2Z2WazZlZjwaHonynTrJkGyiMpqvoXkyKtPQzJN4ultg0xYBi4BF4CBBQElYQ/OyTFkycbOuxM067jwnHYt0tXC8fM3T0F3HLU9E5InytX0bWgQsAhaB8YqAkG484o2Wr+U1lGuLFXdft1luUJ6bgM3MRHnufEm7ZdEIO5pMjhtLbp6TjVsELAIWgfGMgJBtLMLtdZ24losVSnHNc8fNpswyA3I3GWtGLLnku0ncnZYyJlG7891pKa/OrKcyG1oELAIWgYmCgBBtNLJ1y+Oltb6Gcu0a19DEI5psSE9bKgj5RnMq11DKuInaJOdYcaln5klaXDRZX479axGwCFgEJg4CQrZuwnXLzF68GTfLaRuxQhMRLTMgM4lahfFkZp5JxtHiJvHHiusxzfoqc4fmsd15Nm0RsAhYBPYXAkOINMqBTcKWbKmj9WLFtY47X+tHC0WmTtt30m7CdKe1UjxyVmLW0CyrMg2lPTMeLS0y8zzMuORZZxGwCFgExgMCJpmacT03N0lrGVPuJnQzT+NmPWnbnTaPp/FBJCrCaERqknWsuBJ2olCOoWXccbNtybPOImARsAhMNATcxKsELdehcQ1FpuSuoea50yIXFyvsy92XD69KGCYidimqZdwErcSsoeYnCrVNbVfS4jStYZ/U/rUIWAQsAuMLATfZ6tkpSUta4xqKTMlb84UrtS2RudNaTjjRLCfyqM4kd3cBacQkVyVqt0zlZmjGpV1Jq0zTZihx9/FE5nbmsd15Nm0RsAhYBPYHAvHIVfM0VBKXtOmFy7SMKZe41ol2LZKvPKhxCdUNtKvkroW1gDs08zVuEnaycWlXSV5DaU/blHx3WmTWWQQsAhaB8YyAEKxJspoWntO4hkLeGhe+07SSutTROKNDnNQVJ3UlrqHIBpyS+4CgP2ISrBlXQpbQHddymmemzbgcwqzbf8gBmaaljnUWAYuARWC8I6BkK+epcQ2VpCUtXtLCbRrXcmYoZYQjtS6jg5yU1TYGZZiJWORullGSNQnZlIlc0mZoxiVvKf3p9Kvo59Ln0/vorbMIWAQsAgc7At28wAb6zfRr6R+iX0cv3Khkr0SuJO8meJWzygCxKw+7yV7kEfmjBaSSOFNmxoWwxYvTuJvETbnEl9NfQ7+afkK5tLQ0eNPpvbwMohDpjSAU7kUvQ+ssAhYBi8AIEXiO9f+L/g16IXLTC8loWuNmKHG3p2jgq8GJm+QtAnGmTAhanBlKXMtIPJrPoPw6+g/TS9kJ5dJJ6tMKglhckovlC/Ph86Vh0842vPZeA6rqWhHuEdytswhYBCwCI0JACPoW+uvou+iV0DWUfHdcZRKKF6dxTTsyJWmnRP8flWkoYiVwlWk6WljA8r+mn3C9dedC2WOfkh/ABSfMxLWfPgQ5WV7n7dTREcaNd23BL+7ehKraVkRMGKWidRYBi4BFYHgIvMBqH6Ovp1cyN0NhG3faJHSNs9gA4cPDhBC2OiVvSWtcCFycpN1krjJpR/Kkx34L/YQkdp43fF4Pjpg/FT/96jJMnxJgrz2dsnRkZnqxeG4OXn2zCdtq2mzvXcCyziJgERgNBGaykZX099MLiYszu48mefflDs4XHjbLO2WUuLWCGUoFdVLOTKtcyV3D65hxjGZOtFDG2XOyMvC+I6agIN8/6IqZhfwcPz75wTkom5INjtxYZxGwCFgERgsB4c3r6IVZlE+Fd02veRQPlJO4uCGMFIvctaCZH++AUm4Z/YflKBPVyQTqPI6zX3pOOfwZ8jEy2Hm9aTjy0EIsn1OAQIZV9hmMjk1ZBCwCI0TgMtZfQa+ErjxsNisy9SJ3lxlIm+QdraDIYjk9gLQhcdGKGWg4VqXxKpdeezDTh1VLCjGVwzHSU4/msrN8+PK/LUB5cQ48tvseDSIrswhYBIaHgLDOf9ArL0taiV5DkZnsZMaZtc9pIyIxC5lxs1GJS56GEhd/CP2x9BPWCVHPL8nDl65YgGBgaK9dL8zjScPCeTk4dHYee+/JLBPQmja0CFgELAIJERAeFT41eTdWJZOnzbhTXhqI5dx5WtkMleRlgdKEddJL92ek4+ilhSgs9MfstesFZge8+Nanl2DOjDzbe1dQbGgRsAiMFgLCp8q/wrfKs9q+yNSrTEKRDThtYEDAyKACZkZ/XBvVUNqQlacT1nnS0zFvRgGuvnguMv3RIBl8aaIHXzojiEWzcmzvfTA0NmURsAiMHIGj+pswSV34VtIqM3najEtVJ22OK7gLSCFtTCuYDUt59XOlwEjdvlWhHq4O9SCNJBrtpEZ6HHd9GWpZMT8X5aVBasEkd8Rgpgff+uQSbK5sw5bqVrty1Q2qTVsEJjkCES6GkQXt4Z4wwlzd3tPbO1RfMTpGwqfCtaIWKYSkcUajOikzRBXSJPeotfqFSupaRhozvSxcGrZzzp4Em+P3Y870Ahy/oBRrls3BgtJi5GUHkeaJPQY+7IP2V+wKh3HPC6/j8GPSECBhJ+u0937Y/ELcctX5KC7M53COwGSdRcAiMNkREGJvbWnD+qoaPPLmZjz7XiU2VTeitSOEMEk+gRPbW+JMUjfjfbl9f01iN+ODNuvQClIgnpN8LaPhsPUCpaOc4UlH+bR8XHDYPHz4n47HzPKl8GdNh8efS2KXdVF6mHinlXqevOqaW5rw1q5HcOnC+ZAefCpOeu9fuXIBfn37Rnzto9ciKxBMpbotaxGwCBy0CERQ2NONskXNOOGYauzauQ6//ftTuPvlTdi2t9GxUxXn0oX0lMw1lOISF6c9eiWsIb12KRSr566NSBnTSWPaoJbR0CyXVFwayuDqzxXl0/DNC1bj2FVnIVg0F+m+XOawWedIerikmkypUHd3CK9seAUXrJmGrBR67XoQ6b0XT/Mjkl6JmvpalJfMgtcTC1KtZUOLgEVgMiCQlp4BjzeIYHAa5ubPwVdLl+C4hQ/guj+9gH9s20uC70kEg3CrELmGWl7SUlnIMSqxS0EZh5AC0bzku+VaXho3/WelcKrOy4nMhaWFuPmKk3DUsZcgULAQaQSDg+30euhUW01cPsLPoi4Se2XNNvzmvl/gIx8oofrj8EhZTBMsnZ+F/77pL6iYPgtBfwDdPT28cd0ch+9x7ox8osl8gnjrLAIWgcmCAH/v8psnn6V5/MgITMUsdgCPntqCpzdWo76lwxmTj4HGzygX4o7lpZo7T2USDiFvZVQhbnEmgQv7aVpIXrzIJBQ7xSk5IbrC7AB+dNEqXHTeZ+HPL+fZ6LsjpaZiFo7w2sMkWbHi6BBtpBd8n6ChcQ+efPUpvL31OXzykhKUUfNlJLwrRsQaGkO466FqbNjWhs6ODE6eAPPL52JRxQLk5xZgyaxFCPiDNLKcTsLnzeZZeziX4OHEsdfrS3oiN+bF2gyLgEVg/CPADl9X83bcfs9P8KU7X0Rta2esc57LjDC99Nzdocjc3k30A/bcldQ1FBJ3+McI3cQuTKw+ZXL3+zxYs7wCN3zy31A871Tnzcb2huXkqsKcGA33htHLXnMv2VZIvL2tEWvXvYK3Nr+Jbbt2oqG1CYdSK2blolwsmJOFGcUZHCen1Ue50hE6IfhQqJfnwAj/O7Pk3b3YUxdCV1cEr6xrxO49XahvCqGuiQfriWDJ3CWomFGGEw47CUX505Dhk6G2/efki0L+yXMif/vcvphKbJgIgT6trgh/TjKpnqzGlbYqiEfY8ZAHp+9+SI69D4JCaq7/h+zchzTeB6Gs8eciPV3Ytf5BXPXLm/G3typjjb8LuSuxyxCMeE27ib3v4el7aJzHiWUj8cYilPI0ZHnHadodan5SofRaT15UgYLipfxqGd58rFxFKEzy7GzHy+uex+vvColvR31zA+bPCmLF4nwsqAji6CN98GdW8AcUcSZNxUaMDAnJC2C0nLwg/NSRp7mxAcejIS/X65gHXjgv6KhLOtzPE5dz6eTMeXPrRvz49sdxzNKzcMbxZ8LvyxyoP1YRwa2HPYjmtga0dtVwzoA26nu7KAtxUxJ5hqxLFoE0eY7SvHye/GhvT0dhsIwv6mKmpdOgP5HYrfVyiLC9qw11LVWca2pDqJef6vzxy5emJfjYuLlznPvA35vH4+PvyoNgRjFmFM6Ej+lk7oO7vbFMi5JIUdkKnHLILDz+zu5Y5G6eQuIHySzdH49H7lGKD4j0YBoOZCQbkeGIlQsWwBug1k8SP4Jo7XZ1deKex/6IrdXP4vTji3DZ+ZkIZpXyN1GCdGq+9JE43+Cc+DwQTo4quvriomniUMsTU4oi+MrHZ+N3dz+GzTvmY9HsQ3i+8kE0Nk56hiHitrNuKzKzmxAJdHOwzQMfX7Dyb7j3YmzOdiK0Km9qwsaXdcAfQmtoI3Zvq8S86YuRFcyJ23vsoTbF3ka+XP3V6A208SHxkoykxyHzTgfmmZ0IiMc8R94D6UkF/GH09OzAuspdmF20BLlZBfxNjWJPLuYJJJuRBl+gAIctWMjzWstK/A0OdbEegGhylUm/bcClSu7aiDbgTqs8YSifrhUlM5HuHV5PVXqe67e8heaOtfjUpaXIzvbBwzYn0m+i71zTUJDnw6XnFuPWe/+KOWXzuUo2kBC/4Rbo6e7G9r1b4M/l2BDnPHKKFyGzoBwZmXlI87GXwx4nmWW4zU+6ejKcEuHXY5i971DTbrRWbyRH12FH3bso6ZlHM9EFfCaH4ik9870N1Qj7d/GTD8gpWoBA0Wz4cvL5mwjwfWvvQ0oPk3MfOL/W3Y5Qy1607dnMod4q1LZvQleoAtMKi6Peh5SOMYqF0znBWjG9PN4Qnj40GurR3WmVDwmV3JOuMKSF4TIBH/jsbFn4I0MyqR++g73PG++9Cd/+3HROWO7fseooGIxIJL/9AI2Vbana5qxiG1FjcSr38gdQ21yLQG4z0nOzkT/7CBJKBcmE+I3T8ck4lzN+snwBeDNz+cKcxhdlKRq2rOUTXcWvox3sNdL+kGsRngzJNbVS19m3G2kZvciduRJZJYvhzdAee+q/h/EDxgE8E94HTyAHGdlTEcgvQ1Pma2jZuQHVtdu4u9oU3geluwN4jv2HTuNwURZf5En0RvVh0DDZkx/yi07UQKL8ZA/cV06GH0bQYg8nUP3DVGFM7UT3le7hRGhnF8dDB30A7csfTkw23a7jxGtZcQm1Z8bu81FIpa5lN3q9vcgqnttH7DLGP+QxGM5VTPI6fEPLV48vewpyy5bCm52NQLCLv92hD4q8ZGuaq9AdaUNmURmyhdj9Wf33YQQ/iEl+C/ouX+4DNdCC+cirOBz+gmkcqu1JgkP3N3j8naf2sjEfDDPuPvGBvOEyyUAD7pZTTw+vKZkJnz6lmJMn4WHzrJBdNzVahLATOSnT1tGD9zY347a7d1ATR7STRu7kHBqbu/F/9+3G+SdfQI0Zc0p25O2bLQjRBHPDJJIgH/rSvh67WcDGR4xAGtV5fVlTkJE7laTCZzvK4+18qWV1OnNCgalzkC499mgFR3w2k7gBguzJ5At2SgUCWaS5KPdhAqAzorMeLrkfcFxEbfDM487Aw081oG0YROt8Gjd246nn9uLtd2jzgW2IcR+3I/ci1B3B5q2t+J9fb8Q9D+7C6ScV84EZ+aSnnENzSxi/vK0Sy+achvIZ/KGPYc9drs3nC5PUOXXKYQTbY3ff7VFI8+eYzmfTG8jimoZYmkdU1fWwc8CyGdlF7FWO6Dc8Cid9sDaRjoxgIS9OOm+JO3ATCAV5YNx+yOmnQu7j6gn0chxz2fyV1Pw8FH/62x6SZNQZ5yEXrAL5QeXk+riAKYAH/r4b3/vZejzx3B4S+eAfZA9XI730ci1uuWs7Ojgcc+FZZSgulp2aRgaHEHtLaxh/+PMeHDrndJy2+gyqQY793EEkjS8wframkeCtGwsE+nTdPWkZpBP5uotBKmnyvFKTy1F9HdmzNBZXcVC0SVjT5DcVZWjsILi+hA9NKuTuxiNh4+4Ko53OzAxyKONiZKQfjd/cuQsNHN5IxYl64nzuqvTxS2djypRMvPBqHaqrOx29dG1Heu6NXHhUUR7AJz88F3PncHu9FA2MaVsaKrH//r4aFOedgH9atYYWKakhM8IXhrYfL4xE+PKiema6oxUTr6TNGzYCHJqRcd8YtO402yv3gS59mGs8nMr2TwIEODRDnfJ49yFBAxM6ezSmjw8YycuBs4PZOPv4c/G3F/341e2P4qMXzuAikoykeVKIWvZMveqyOYhwXD0jc/CKVZ8vHWtOKXEWHWVwt6ZYTl4CokOeaHWiEHtrWw/u/Wstpucfxx77mfuN2Aef+wG7bYNPY7Kn9sMLfbJDfBCQ+7B+rLHZagI9EUGOb64hSR695EJ882dbUFvXNaj3nehS5Pfl93uQGfSyJzW0tM+XBpPYhaBDnIhtbQ+ju5fvx/QgVRgzsYu9/nimmpXY//jQHhRkHYfTjz2H1ihV/W3oca3EImARsAgMF4EoVDbcpg5sPVn4s3rZsfjX067ED2/aidp6WcK975yEWDtp+wXpHP7wkFA9ARpr8KOFvegWTqaKbyNZm3W0ttTt6BK7MX1E3k0if+jpRnzlJ5V4dtdpaJ/1HbTN/Cp+cltNn5qkVjRCJfa7Ht6DoPcInHL0mQhaYjcQslGLgEVgNBEYjWGZ0TyfEbWVkeHH4UuPclQkv/er6/G5j8xAyXRuncdXWBeJ/TZOXn7wCzfSlkoWbc0EUbltM7719U/RsFcnukMhLnSI4D8/vRiFRYPVEaXuDbfvwPL3XY5VJ66RwRccGtiNkz88gwtPvHj0gdtREH4a3/h4GU0HD9WiUWK/95E9yPYdhTNOOM/22Ed0p21li4BFIBECBxW5y8V6ufJr5ozZ+OzF1+Anv/svfPay6SgpCcCf4cElZxej4dXr8N2bt+M/rr8RxWXl+Mlv78Semmr89U+3IrRnLYLZQyGRuh+/qBy7ah7Brd+7jSveOrFsUT5OWU2VSJo9OH1xiBPyfkdv2Q04O/1op378H2kOONS5AOef+c/IzpQFK8MaRnM3b9MWAYuARSAqAkOZLGqx/SeUyY8wbXX09oS4gIv2YribiUxViizc3UktBBrd8dEuOqUeanxEU0kUw1tlxRX44iXX4ke//w6u/GAh5szMps0WWfjUi+9+pgyBxh8gvTkdYsUlhytEP3YaLSJGZiEzyqSp8LD0yOdUpPPFMcMxKeyhZckML1XduEqW1ovpopO16M4/+lwdIt1LcMnplyKHy6MtsQte1lkELAJjicC4I3ch8edeuhU792zE7NKlWDh7lWNt/I13/k5bHEBr416smPc+tHTUY0H5EcjNLyVXDp06EBOgxVNK8LmLv4qf3vE9fPEKL6ZNzXReBlkBEnGERvL7VdqFlv2O2vfQdkzwRRPG749O4mY5jUuvXcbqH32uA9+66oO0M2KJXbGxoUVgoiHQy46cLPwbr3bi3XjGZzN36f2QFgB30rLeaZ+4HtOOPBYPPfsbvLjhIYSoyXLi5d/AqvM/gS3Nm5C3/HD85ckb0MENOWKpxshqz+lTS3DFWR/H/Y9yz0JquAzHyZi5+FRdD78Itm7vxDknnINsS+ypwtdfntjTgmJvT5wFQcNs2VZLDoG+55/WL2kTZ59P/feQ3NHGZymxY7Wt6nnU1W+gZlxq62kO1BWNu567kHso1IFn7vwhjv2Xz3GFmQflK46jgbAcBHIKMWXmAlSsPJ4bdLRQM6WddmFCcbETS3Bl0yvwjz824ZKekkGbacSqKA9zOEwv2jV8hkPUqKE9YeQWJa8/L21LH1/sysubPvn+fqyzmnxyuQ89oU7UV21Ea2sdZsxezmegoB/ZyYfHfr9iwZ8251tqd3ENSD+h8evVMcxFuy2ZtFfvzRieye79fi0jPGBvRDqd/3BebhUltRyeXcX5vcGKFyM8xKhXH1fkLjbaK3etc4ZOWhpr8febr0V7cxOmOz/qPMfGdSC3EOWLj+GGEx1M39z3cCWanOSKQVGDTKb3LWWaG7rx0hN78Ozje5Hb48Hs3Ezkr87CiWeWwEud92SdbBJSVuzHU8+vx7ErT3L2Sk22ri3HUTMO0b368M34x+N3MdGNKeULcNZnfs4XfbaFZz8gIB2t7f94Eo/dej1fsl3UOuOHPjs70nsXk7VLjz8bR/7zJ+Abw/0H9sNlJnUIvtLgJY+00178tqpXyVFezJx+hLMCNqkGDkChcTUsI72EjdtfxqlXfhsXfvkmnHH195GdV4iXH/w1Xvrzjehqa0LN1nV44d6fY/PLj9C6YSbqGir52R5/uEVWjiYoMgC9lKve0YaNzzRheVoWFtBGtFiDnDkrK+oCp4GKUSLyzvFxjH7D9o38lOsf4I9SzoqiICBfT3yBb3j+QX45NSPU0Y66nZvQ0VQbcxguSitWNAIEpKPT3lKPMLexFHLPm1aGvBkznU3eu9qb8M6zf0ZXR/MIjjBxqnppxmDFovOplJGDMLdB3Fr5InbsXssvm65xexHjitxF88XDzW0fuek61Gxb5/yIgyT3+Uedioqlq7Fz3XNo54Tq4WdcDn82N0fIyuU4eodQd0yAhdi7+bZdMCub2jWJe91ijmDW4jwsPaUIu9K50pUTrdXcBquknPryzEvVyQ+kvrk+4Qso1XYP9vKyU1H1xtfR0dLg9Ba9XMPQ3dmBp277Drq565F1+wcBfeJ9XBdy5qd+hHO/cAPO/vSP4MsIUHutf8gm2Z7T/jnlMTpKGk04T+PWoOf2E3yIPfi1JPiXHLIfo4OOqNlxRu7pyOUuKmGOs/ZwUZFMpDXvrUbFIcejbOERyJk6k74MuVNmIn9qOZprq6m6mM0PJn0Eo2DBz8hwuAdTCzLY845TzqgqG10fe2oxLvv6fEw9LQ9XX7cI2aw/HCdfssWFrDuukB7OlezfOj3dIbz9zL3oDodplzuIeUe939FUqNn6Lsm9Y/+ejD2ag0BvTw+/ptpRveUNrtbuRXpmJvKmlHEMfnI83GKrPytrBlYuPB8B8k6Y830yRLOr+lV+mcuE//hy4+queDn5eeiik2lIi4RNHvawt1ZYOofj6kLM3GGeaV+/Cc+ujhbOcaYjjzvfRFOFNGGWTSqK8mUXdFMaP+7N4AQqLUUe9f6p3N+S5JxCXbNl+VqYVZqF9vbmpMb8zbqTNS5fO7KmofK9N+ElcRy55l+x4KjT4eEeryFqKuze9Fq/9sxkRWj/X3eovRV3fPNi3Pb1f8GL9/+GX8HAcedfhUxuIziZnLzIstiDX77wPGLg6xuiqXqZE/5V/MKMPYJwIDAaV+QuDOoP5FJ9cRZ/yH6SailO/NCXnc0ldrzzAl66/385/v4bjr23OmR/yIJjWZ4PVxzWDrO3sW7zOhy6MJez28kztOy81N7ZQ7MFPQxFg2d4N06GeRbPz0ZNXbUzEXUgbvJEO6YMyVRuWEsNDa785Ut99sqT2UMs5TAcX/rdYax78h7n626iXdeEPl/+xgLc8zMzL9+5D+FQN16455fOuhNn3GxCX1xqJy9DvR0hqmDTOYsoSfhC9OPNjSttGQFH9pesa9qFnGkz0Vq/G3/91Vdx7ud/4WhI+Lg93NSyBTTLG+DC0G6SNVeoJkBUZvbrOOY9i6Z7k+l+S69RrD3uqGrHrQ/scIyJTaWtmaVz83AWTf/6uDI1FScvlBUcw1/7yjYsmn0oX0pDbc+k0t5kKBumKuxLD9zI3jvnPPhOvfu7l/PFyOE1DteJYM/2dznB2oYMqzWz3x6HDFpePe/ff82djbLR0dqAO751CdpbW/D0HdfjtCu/R8UB2Srw4HeiEtnQuAXrtzxKruLqdG8muWENe/PFpJfx1Vced+Suk6qP3vx19tBb0NbazBn7Bmx98xlsX/cKCorLnYdrI7VlyrMq4vba5VHrJSvsbdjL4RzZISfxwyd2YL743Tcc7Zrrv7iUmxzz04s67488Iz1vMkzC18ngY8j15GR78O72TbQE2YPx934ffL4HOiUYi2ZGG++ZEHsG9aidVQLEMZ2TeJ2hdpJ8iD37F7Bg1Zmc5LaIjuU9kydenXxRiWZahF/DES7QkxvU3FDryLTMwRyKamhD0xa8velhzgXJHriZXCV/IgryZpFbxl+nbdyRuzwcAlTjnt1Us2ojyXJjix9czUm0dpQuXIk3Hr8Hrz5yBw11RXDYKasTLgUOc2XjWxvX4ZLzOfGTBLnLwyxkfs1Vi1BU6GedNKf3/tyre3HqscXIyEv97dzLH8TOmipey/CGdg7mH4z72kS3fcPz9/PHE+LXWgBnf/5/UEhDcDKvEmpvwR++/a8I8YX/5mN3YO5hp1hydwM4ymntjMqY++3XXtzft4lwEWGHs9H6osPfzyHU4SkbjPKpjmlzzohCw0a8s/lv6O7pI/ZFs07G1KJFzhDxmB58mI2nzlTDPFCy1WQYpb2rBWd/5seYPmcxx/dycM5nf4SpM+fhxIu+hJmLDnMMismPPS93RtIz9Yl2SNLzE/4PZnpoh2bfPqnSSekm4d/zyC7UcSMQMQGcipMxus5Qi51QTQI0wV+eAR8n1fOpV11UMo+TdhznDeYikFuEZe+jrnE2F7TRqFwkxa+oJA5vixgIyErU3OLZyOTwl6hCOo6/hTSqK+dQRfmwky/AISdfxN/jwU/uYnJgw9ZHHWLvG4o5HdOKFnOsXfrHSfQaDVz3V3Rc9tzl07yjuQ5HnX0l1v751wjmFOHky76BHBoCO/YDX8DhXMz08gM3oKZ2CyoC+QnGsfmZ3ysmCqRPntg5PXdOprKSU1gmVqt2tWFeeS4qq4rwlR9sxRHLMvEvZ5Ryiz8PMpyx/PjtyhdDFs1POvuXxi866XOlF7j8lEsx7/B/gpemkc1xddGWOvLMj2HJ6nO4ziGPcy+TY5z3QD0UMj9UOv9wXHjtH7hAuN/MB5/ldM51+bi4z8MhM7knk8EJfadzRCHDl4X5M49HYf7scdtj1/sxrshdSD1EFUch2Ofv+wV6uUhi5amX4Mlbv4vGmkqc96UbHG2ZrW88x3G/XiyddlhS70yPJ779GQHDOTZ75O3t1OUload50x1ZXX0nfnvvNlzxgdn48e82cgwfeOe9AL785kacddIUnHh0gUPyXpaP5eSrYQqHeHrFPgevManxoViNHfRyLvMmaeRNq4iCk+aVR8k76IE5IBcoRJ6VP43Hll+luvHZU9WzG4tQ7MgcvfwK52tR7FUlUr8ei3NItc1xRe6yKOClN+7H4uPOxLQ5h7JnloXK9S+heM4hmL3ieKfHsPDoM5A3vYyfirl45bE/YcaMxfDJ1nkxnHBpK7fQk6GRaE7ye8nYza1h3P+3GjzzWjO1WmgQiVou0mtfv7kFpx43HbPLs/CDryzlyyQN9Y1h3PAHjjn2rsa/X/8nXH7+dCxdlOWQvIdqUW4n1iF37m7n5yt7OckM/LsbmIzpeDjFy5uMWO2Xa558hO6G1cMJ1InkhjJR8mevbKlh8jXjlAyHu6gV8yLJ1cfx1rl4d+3f0VC9DeWHHo9n7/xv9uhmYve7r9Og1C3cHq/d6V3HaY5cyt6eN+iMmbvLiSZNS2s3Xn2rGV//4Q4Efau5l2oHLj6jzNm5SYyN3fFQJYdhCvk55qHZXh9VnrwoLPByDH0vVi8/Ft/n3MCe6sNxzQ824e0NrVzM0O28LPRYMjlbWxfitnqJF1tpHRtaBCwCFoGRIjASch/psYfU75skLUZjdRWqNr7mqFiJPnMnDUeJ+tXeys38OuxBExcEZXJBRRZ774k+j3yceDuFS9effqmBvfNuasL0Oj3yDqo8VlV24Evfew+vvzUT/3HFtdhcuYPmD9JQyCEUGaZpbe7GNJoOcI+r+zjOvvqwPOyuq0JeDvXfTzwX3776J3jtjQr85y+3Y9vODpI8N92m37K9HT+/ZTc+c/HnuPI29hfGEDCswCJgEbAI9CEwrA50KsMywzpAKndHFiUtW3gSKqs3sFrfZ6CHPfgFq9Y4S867uZG1Y2qTGjPL3ncRnvjVNxL23P2coDvrhLNxw907sH7TVpx8TBHJGnjwyTr20nPx9Su+w574VFTV7ER1g5jmLeBkUboz7v7S23U4430lA+QuhC9aMzJkc+Sh+Xj59Q2caF3C/Azk0xTxh874CC1IXoDbHv49NmzZgO7eDswvW4xrrrieurCFCV9EqWBly1oELAKTFgHhYvUxQUiF3GM2MloZztuDM/TdVIUrnF7hnH92wRRk+LPxzB0/cnSfRZvi6PM+w9Wr1eyBJ7c7TzatR37qws/SBEAVtu/eikbqUH/0nJUcZsljbzqLhNyKWx78PbVvWnD6ibO46iydxN/NF0ANvv+VZbTZnOa8RBobQ3j61VqsOaGEapgebNj2Ls44vs+Ur7yK/JwIzKD2wJXcLSpMg1cyzi8vrEzKyeyjBdMoteOgPUpt2WYGI5AKtqmUHXwUm0qMwEGMrl6ahkPAcJO7FDxgLCT7p7769oM4/KyPcGOGxdj+1rNY8/HvOsR6yuVfc06+g/alRQ1L9Jzbu1q5WrGdPWcOd8QhT7mgQCCICo7hl02fzVQf6Uqdbr4gXnjjGWQFq7nnagZyc6g/zR56zZ4O7t+a3bcST0BhWX/Ai3WbmnHq8dM5OZqGqr27hixMkglXIXn/uFX95UgcJ3h7qbfroY1q68YAAXZOIgmtBPaNiIoZjfQJNlE3BoiNUZOkswQ7tY3RgUer2ZjE7TpA1HJK7smSujaioesYI0sKgYqZ33XP3EeTA7/lmHcDppTOxqxDjkZ24XRnNWIHTRKIQan2pr1UlQxxdVzyvWKx6CZWBk0X4lL3+574M1Yt9+K4I/smUmWv1Qce24UX326gvfgIrrp4DvyZHKrhh0JNbSfPUcg+wjF/miWOY0vePM64iUeE3LknqZjStSv3x+C28HuN+Mqil7Te2P2ktIiHzw7LyTJ2yM5SscuOwUlOjibZSRP7RIPVOCfspSfLuQPllNxHcsUDjY2kEakre40WF8zC+pfvQrrPi4olR2ILddprK7f0r4LjofgCELO/3V1dyOFwTaIJ1UTnJBozexoa8dQrIZx7agkXJqShk9Yg129pwc+uWYH2jjD+9w+baBUygtOO42QvJ1mF/AMk+0Vzg6hvqEGWPyvplbKJzmes8yNhj2MuN8z1BL7MXAfPsT7mpGqfj6j0xns62zhsKFcenbQj3L4x4gmju7Weq7ALWWz82SaZ8PdNyL29np1A3pSJq8sQjV+jyYbcrlTJXRt1h0MaHo5AljvPLF+B0p2vIb0oD8ec9yluDPAOVr7/QsxfdTp763XOcEyQy9Drd23EEzd9eziHGVSH7wrkZqXhqEMLkEmzAz1cHPXWe804/9QyZ+GR15OJz1+xEA0NXXjo6Wp0dPXizXUNOGI5l18vyaPNmJ0oKZ7F3tfgL4JBBxkniQiXjXd3kUS4k1GoqYqrPKfSGNfkWGG4v26BmE4ItdWhq3EPd5Hi4rlc/lSG8DvXUHTxs8nTifbarQgUlMLDDkKUgvvrtA+648jQag+Hbdv3bkNXO+9DzoSDVzlW742mNVS5hFFlI2WkaI2aB00QH1xdJkjfXP93tHQ3o6h0AW2I5GPeYSfiTdrvbt5biefv/SnWPX2Xs5HDqw/9zrFxkeAACbMj7GXN4CbWF59dzsnQdPbUe3HT3Vs5EYo+e+4k80zKS6YHcdl5s/Crbx2GZpoEfo1DNjOLM7G9ejvHryfG/qgy7JXtLaIBrm60VnM/0vpt7GXSrK6MM/HHEP0ZSQihLUDshEwifH6722rRWvk2t4OsR1pPgPIhzE6u545jGcXs3aejc+92tO3eQCJq43COvQ8jepj0PsiwWGcTGne8jrb6Gm7PKKvNR9Tygayc7A9zyBUm03N3V9K0hsO7cKLdS4P/Dur9z7+QZH3jLpzwwf+HItpt99N29IpTPsTeZhvW/uU3OOXybzkW6N564o/Yy82SS4tmjXhYJt3rpcmBvksJcWOOzdubOTRDy5BcnXr9rzZgar4f57y/hC+ATAT8HuTnZeC0E2iwjOfMfSNQWTN0UnV4gIx9LYfcaYunpZ49y7QGNPa8hK7Wvew5lsMXyHG+ijgeNvYnchAdQV6MESoCyDPa3VSDtj0b0Vm/B+E2D6Zkc5hPzSqa18xnJyszj/NKU5xhg8Ztr7F32YAgn2cfh2i83KjGToiYgCUR509YOio93FO5u6UW7Xs286toJ+8D160ES0fME0mcQYpF+CJ3tP1iVhNSisax0WRRG4lH7jy646R3L3Ht5WvjGmq5vtJJ/pXKLTT6X0SjXjIcI5+k6WTV7MwcPHzj1zD70FVY/YHP4eFffZm7vdRj7srjWMTDMh4sO+lCbph9LJ7msIzT60zymNGKpZPMyqYtwePP7UEwGMHdD1fhmBVFtBlTjBNWTaPWTCfue3QXGlq68KGzKlBWEkQm9eBlbL6dPfj0tIlDhqLJI3vOFuaUoK5lFzWN6tDN3etbd67rmzOQN5Z1qSPA3jmXxiFCW0i9fON3t/owNauM5igKSCpDMZX7kOEPIC88Dc3c67utowa9XevRUc1Feh5P1Dqpn9QkrEFS6eW/NO6Z3OPMe/hQ4Cul4oPcB6Wv8YGLfOW1chOhFD8pUuLaeOTuRiEewbvLJkyLfeQtVVtRvqCTk6X9sx28OWlUzyucVsqt1U5izz2PqpD/jSYOfVRx38yXH7wRfv4osgqK0bRnJ3xU94j240l4cKNApj8Tn7roM+yFd+LhZx/CdVdehe11N8NPAvdS3TGrIgufuHQuOjmx+vv7d+D1dxrZk5+B4qJM3PGXRnz5smup9jhxxq09VCHN8ufQVGkFVUmb2Ivfy/FefoKkhdGbLsNL+s42QLLRGAj0EXdar3Q6vIiEvAh4ivnyzOOwnp8qurFtkYgqbyaf5bS0YvhD2WhqrEHE28WvJ2pg8T5MOC2sGAjtPzFfmb2yrQs7ij20WokpKAhOpXacj7/lIOXjyXE+INxB/uOQbuzxIvkhun28i9AfroacBxzsJENw0HBw7r4evDagobtcwrQMwby28T2sPrqOwx35PCp7PyT81s4GHH/xF2kcbJajxnTfDz+BAhoKO+bcT9G2dDnH2TkWzh7/yw/8EkGaH+g73YSHi1lALrZv8VEmTj/un/HoSw9h/lz2nvpf9PLykOGYzAwPrqRKpNhy37StBX/6Wy2uufzbmEYzxOOtVxDzYpkh6qB+bokmb2pnN3e/bHA87NsY71CTLI9PEj/iZDzdy6G+DBKKvEjluY7m+nrvWZyvkSJcGyFrNex9iAbVMGSCOWle7gPXEPik8xXjPgyj8VGoQi2ejnryn1iZjTlfpz9Kd5j08ZXcpYHoT+HQprQHb4ZDSyWQhPnp9Le3d+DCHa+gPHsm0tjLkWGZvKwpePB//x8qlh2DVWdfjU7uvlO9ZT2euevHOP3q7zsmgZ/4/X+iuXY3pmVNHbWfg1y8jw9DHYeAFvHl7wZDno1MIXn6Qxbkoaq6F9nZI1fFTADTmGSn8Ysn4KhvdjpqkX0TqkItckutSxWBvq9H0jpXMoP9JT83r3A2sEhAKNIpyOQK6e6QB2HqxYu9f+nIjXSoMdXzP1jKywtTfrkyZMqbgQyOAjjzFwnuw/6+/giHousqX8dj67Zz7UxMcpfT0h+kErzIJC5e8jSf0aFOyd3M0YYEqUROGpc+LmdGU9setJsGvF7dWov7nnkSHytZhmDhAmcH8UWzV9Ne+vM0FtboPORe6rSvvuATjuaMj5+xYn7giDUf4UYBfqpCfhMhqjtljJIpXTEXIKYIMrjf6lB6p6jfie32qYVePLn2CW69dyZfChNvpWcazSIE0rOcp0SuVq7duuEhsO+Hsi+WbE9RvqRk/D2DithyB7iMz96J4d0Go0OW+n0Y5iFTrhbhS7yjfjPuffpRvLRlD0LkwShONqDQH6SEGpfCZlqqap7EBzmT3KWQgYpTThuSRiVPG9IzEmKXeAO9WPRP2klDzR0h/OKJ9Vg441aceOLF8OXNxo7db1FhIwNTyhayBA11cQXp47dczx15snDR127hDk31ePjXX+dkYCcyOJ4mpgiS/SElOjkZ/2qiBcoge+fxXvbSMSjI9eKtd2RfVIUkUevjMJ8XqTd8X2wcnufBfkr9D1vfvbB34uC83aIq20FNqk14+unb8bPH16OxTVbPRnWNlCr3aqic664Qk4BMcndXkrQ2rMQuaTmITj1rnNP8qZE7y3OJdgRb9zTj83e+gK+2dOPME9bwG4CbWlBjIJBdgK1vPM2JhxAPlk5Vsw5sf/MZZ7uvnlCIH79pWDjnSJYdPW0V2dG9sbmJNtuL4pK7/BZzs31c2UoTCHbTa7mV1lkELAJRESBF0s6Q6N237H0LDzz+EL778CvYvqcp3mSq8Klwq/JvTALvP6Tma+iI45G7FNSOXX8bA4GSuggkvpb+GEmk6sJcEbppVyOuufsFPLWhEh99/0q0NjXgmT/+lGqG1FZhL/6c076AN95+BC/c9XNHbfK4FWswb/YqZzs2r8ywOnukpnrkoeUjvV3chKOJw3VThmYaEulbZWelo7ZxL9/GnTy+qHJaZxGwCFgEhDaFk/iXfBLuaEBn8w5s3Pwmfvbwc3jsnR2obqTBQ66jieOET/sbckIpaqaFc03nbsxJRyN3ydCeuknuZuPSsB5AyjxE/1kRDseF2futamjFnWs34qn3duOwikKcurQE5UVZWFJajEjVw1iY1YXWYMBRUZzasxXt2yqHc6i4ddpDYV44FY/Nq45Wg/npVJMMddWi/r1b0SkG4q2zCFgELAIyTCsLNBnWt3bgze178Kd/bMeLm6tRQ47r6OJaiMQoCZ+afCtVzLS0oDKJq5MyA84kd8lQWnPHpSEZitED6PmpbB3znqdfTT8sJ8u32zq7sbWmEZV1zXjojZ0cGuHMd/94pDQqqpJyiqZsWAeLUUl2XDpndSkamkPswcfvjbfTuFhzqAMrv3pbrEmRGEexYouARWCyICDDtrL7W4iLloT3k3DPsYzwqZSORuBmE3FbFDJXQpdKmnaHQuLxvDDhSvo/97fBYOI5eY/4qc+eQYuUyTgxV9DJ3r51FgGLgEVgFBAQsj6L/h/0QuyiJyle4qaXckr+IhenMo0PWcTklIrxRxtzZ8uLQA4gJ/R/9B+hn5BOdIw7u0jY9NZZBCwCFoH9jIDw5xv0SuTCudGcSeSaP6Ss9LiFnNVJ3EyLXNJSUfM0X0LpzYtT2TOMH0U/U4TWWQQsAhYBi0BSCMiw9qfpZShA+FYJ3h0ya2gvvV+meRKKIYYBYpa0krSE6lWuee60KZcTeZR+Bb0leEHKOouARcAiEB+BF5j9MXpqcwyQuvbOtUeuaeFYlUlcnKb7Un1/udfXPkLXDJPUTZk0YOaZpK7lJKRuIO6jz6dfTh+rHLOsswhYBCwCkxYB4dT/o5ceu0ns2luXfPFmmskBMpc8cRr2pfr/CrmLMwlY4pp2x53C/fnRymi+nMwT9I/Tz6Ivp7fOImARsAhYBPoQEK2Yq+n/QG9OmgpRq1dSp2hApkQueeI07Y4PInGnZP8fN6lrWkIZZ9e0xlWTRvNNucgOoT+dXsbj59IX0E88gyw8aessAhYBi0CKCIitmEb6zfSyQEn02N+hV/KWUEjaDDWuckmLixVK3iCiF+IVp2Ffal9a5OolT0hbnJK35Gk8WqgybcMsL3FxmqdxR9gv17gNLQIWAYvAeEZAiHUQuRrpaIRsyiSuJG6G0eKCgdaVfPHiNByIq0K3ZCjZaqamtZKktZzKpKwcSEjcDM26EjdJXtugeIDYtbyGkifOne6T2r8WAYuAReDAI2DyoJ6NyEy5EnG0UMtKXjJxOYa2I3HzOJIe5JTcBwmNhFRWgo3XkBxQCV7Kax1pSuTajuZpKPlaNlYoZayzCFgELALjFQHhNzc/mjIlZJVpqHIJ48kkT5yG8eJOQfkTj9ylISVcjZuNDzTSH5ETlPJK5u58kYuTMqZ3hP0yiesxVW5Di4BFwCIwURAQjjR5Uglczl/jyYTajoZSX9s1ZSI3nZYZRO4ijEasKjdDszGJS56St554tDLavpaVMkr0Znktp6GZZ+MWAYuARWC8ICDcJ97t3HLlRVOuskShtK1lJG4ez4xL3oBzk6c7LQVVFi0UmSnXtIZSX4nclJlxKSMumqwvx/61CFgELAITBwGTiOWszXS0uMqiEb8pc7flJvZBaSFUt4sn0zwzjBeXvGj5ckwzT89By2q+ym1oEbAIWATGMwJuEjbPVclbZIniZjtmWXddSZtkbsYlb4B4nYTxxyRZFavMHUq+yEx5ori7jqRNp/VV5k6r3IYWAYuAReBAIaCEqmG084hH0FJP65pxaces586TfK0ncXHu9AAh92UP/huNUE2ZxuOFmictS9ydVrmEsZxZx10mXp67rE1bBCwCFoHhIDCEOPsbiSU3j2GStMiljlnPnU5UXtuQUJ3ZnsoGke2AsD8SizhNucY1lKoa11BlZjqWTOSJnLudROVtvkXAImARGA0EopJogobdZC3F3YQuMne5aGWiHT+aTNobIGInEeVPPCI18zSuoTYlabdM8lSmoZa3oUXAImARONgQiEbUco1uQheZkrWGIhPnTseSOYXlT7LkGqucW65pDQcO1B8Reaw8LZsoX8olU0bbs6FFwCJgERgpAtHI1WwzUb6UlTKxysXKi1fePP6QeCokGa9stDyVaTjk4IZAy2hoZNmoRcAiYBGYMAgoGWsY78S1jIZm2WgyyY8lN+s68eGQaaI6sfJNuRkfclJWYBGwCFgEDkIElJg1jHaJw80b0tZISDaZuiMtk0z9IRdlBRYBi4BFYD8hEIuMY8mjnVaisonyo7U5amPXqZBwKmWjnrQVWgQsAhaBCYpAskSdbLmYMIwV0Y5Wu6PVTkwAbIZFwCJgERghAiMmYh5/NNoYdBn/H/YhygrCICJAAAAAAElFTkSuQmCC;" vertex="1" parent="WIyWlLk6GJQsqaUBKTNV-1">
          <mxGeometry x="439" y="40" width="375" height="110" as="geometry" />
        </mxCell>
        <mxCell id="ntf6u-JNqa4Ea9aM1wRL-9" value="" style="shape=image;verticalLabelPosition=bottom;labelBackgroundColor=default;verticalAlign=top;aspect=fixed;imageAspect=0;image=data:image/png,iVBORw0KGgoAAAANSUhEUgAAAXcAAAByCAYAAACoepH5AAABYmlDQ1BJQ0MgUHJvZmlsZQAAKJF1kL1Lw2AQxp9qpWiDtOLQQaWCIkKVmlbBsdZP6FAaxY8tTT9STOtLEhEHwcE/QFCcnNX/IIuDg+5CQcHJRRwchThoifc2alvFeznux8M99x4HtAkyY5oXQLli6pmFmfDa+kbY9wwB/ejEAIZlxWCJdDpFLfiurWHfwcNrdYzPOvWfBzerxtNL95A6GHib+tvfEl25vKFQ/aCMK0w3AU+UOL1jMs77xL06LUV8zLno8gXnrMuX9Z7lTJL4ljigqHKO+JE4km3Si01c1raVrx349kK+siJRDVH2YRZzSNELQ4KIGCYwjUVI/3jidU8SW2DYhY4SilBhkjtBCoOGPPESKlAwjgixiCify2/9+4YNTb0BJq/pq1BDKxwBlg0EDxrayB7QMw9cHTJZl38u67G9RiEmuuy3gI4Tx3ldBXyjQO3ecd4tx6mdAe0P5LU/AcXqY4GSHTNwAAAAOGVYSWZNTQAqAAAACAABh2kABAAAAAEAAAAaAAAAAAACoAIABAAAAAEAAAF3oAMABAAAAAEAAAByAAAAAEhK6kEAADVnSURBVHgB7X0JeF3FefYr6epKV/sur/KKd7wBNjabITaBhCVASPITQn6SJk3SBH7yNP/fNE1LkyZp0yUtNE8SaNMHaEMTwhYoBGIIq8EQdu+bbFmyZdlarF1X0tX/fufqk0dH527afCXP2KOZ+WbOnDnvOfc935nlmxSMnksZvapsTRYBi4BF4IxEoG+0rnqkhDxex4/0PKOFl63HImARsAgkQsCJlHUjO5JjMVzSTPQ4s7wZd1+MTVsELAIWgcmIgBdRe8kiXXsiZZ06EiXaeMub5cy4V8NHmu9Vp5VZBCwCFoGxRiAW4SaSH6usXku85eLW3GMRsJxYy2iojdHQlJtxzbehRcAiYBGYjAi4Cdmdlms2ZWbcC49Y+c4x8ZBsrDKar6HZGJVpaOZJPNUtsGmLgEXAIjBJEFAS1tC8LFMWT9w8VuLmMe48Jx2JdLVwtHzN09B9jFsei8hj5Wv9NrQIWAQsAsmKgJBuNOL1ytfyGsq1RYq7r9ssNyjPTcBmZqw8d76k3TIvwvaSyXkjyc022bhFwCJgEUhmBIRsIxFuyNVwLRcplOKa546bVZllBuRuMtaMSHLJd5O4Oy1lTKJ257vTUl6deZzKbGgRsAhYBCYKAkK0XmTrlkdL6/EayrVrXEMTDy/ZEE1bDhDy9XIq11DKuInaJOdIcTnOzJO0OC9ZOMf+tQhYBCwCEwcBIVs34bplphZvxs1yWkek0EREywzITKJWYTSZmWeSsVfcJP5IcT2nebzK3KF5bneeTVsELAIWgfFCYAiRepzYJGzJlmP0uEhxPcadr8d7hSJTp/U7aTdhutN6UDRyVmLW0CyrMg2lPjPulRaZ2Q4zLnnWWQQsAhaBZEDAJFMzrm1zk7SWMeVuQjfzNG4eJ3W70+b5ND6IREXoRaQmWUeKK2HHCuUcWsYdN+uWPOssAhYBi8BEQ8BNvErQch0a11BkSu4aap47LXJxkcJw7ql8+FTCMBaxS1Et4yZoJWYNNT9WqHVqvZIWp2kNw1L71yJgEbAIJBcCbrLV1ilJS1rjGopMyVvzhSu1LpG501pOONEsJ3JPZ5K7u4BUYpKrErVbpnIzNONSr6RVpmkzlLj7fCJzO/Pc7jybtghYBCwC44FANHLVPA2VxCVteuEyLWPKJa7HeF2L5CsPalxCdQP1KrlrYS3gDs18jZuEHW9c6lWS11Dq0zol350WmXUWAYuARSCZERCCNUlW08JzGtdQyFvjwneaVlKXYzTO6BAnx4qTYyWuocgGnJL7gKA/YhKsGVdCltAd13KaZ6bNuJzCPLb/lAMyTcsx1lkELAIWgWRHQMlW2qlxDZWkJS1e0sJtGtdyZihlhCP1WEYHOSmrdQzKMBORyN0soyRrErIpE7mkzdCMS94y+ivp19LPoy+gT6e3ziJgEbAITHYEunmBjfT76d+gf4p+O71wo5K9ErmSvJvgVc5DBohdedhN9iLvkz9aQA4SZ8rMuBC2eHEad5O4KZf4Cvpv0a+nt84iYBGwCFgEwgi8yuD79O/RC5GbXsha0xo3Q4m7PUUDXw1OPI1/o5G7ELQ4DaWsxJX0NS0y0/uZ/g79D+kr6K2zCFgELAIWgVMICC/eRF9C/wq9kLnbublZ84XY1UUqg2jkrgQulSiJq8wkcne8kOXvo7+6/zgG1lkELAIWAYuACwHh05X00l29mb6T3stJOXUmsatMQ7NcipvcJVMLaFzIW5yk3USuMqlH8kRjv59+QnTDpLD1vrQUpKWmQuJ90WDjRVlnEbAIWATGAIGZrHMV/eP0qsGbbCRxM83koLTwsDt/iOYuhcSLc5O65pmhlFFil/A79KKxJ71LI5vnZKVj4YwizJ2Sx7gf7Z096A31WZJP+rtnG2gRmHQICMFLr8fzcVyZSeRmfNChkTR3JXA3wUvay0s9Mngqfez6cmA0OV1aagpmluXhYxfPwL1/eQ5uuW42rji/HG2tIdTWd6G9Izj0NZicl2JbZRGwCEweBIRDhdyP9V+SELfb92c5gRexD/Cvm9xNMleCl1o0boZK8lKHxO+ir6BPapfSr7F/fEMFvnv7MpSVZCIzIw0lRRlYv7wYu/e14sDRFgR79OsoqS/HNs4iYBGYPAgIv86mf5g+FgEp6csxXiQ/0PXC/EEatxygTklcZBI3Q4mLX0p/AX3Su3T2sS+fXYxv3LoARfkyRBB2QvoFBRn4/A1zUF6cg1TphLfOImARsAiMLwLCo8KnJu9GaoFJUmbcKS8VRHLuPD3YDJXsZYFS0jsh7MK8TFx+fhnKyzKdQVSz0T5fClYtLSD5F8CfLh8k1lkELAIWgXFHQPhU+Vf4VnlWGyIy9SqTULnZkWkFEQuYGf1xrVRDqUOm8iS98/tSsWxWAb544xxk+r3JOzPTh49cWI68HP9gpJL+6mwDLQIWgUmCwJr+6zBJXfhW0iozidyMy6FOWgqqcxcQuVYmcck3K5a0+nlSIJldKgdRSwuy8OmPzEIh+9cjMbffn4rrNk3H2XwJ+NNNeJL56mzbLAIWgUmEgPCpko/ybrTLkzJDnFYwJMMlUFJXsZK6hjKFJ2mdNFKIevVZRbh207SopC1lA1k+rFlWiEDmqT75pL042zCLgEVgsiEgtrfEmfxsxsO54b9CWerM+KCDPQuo0AilAq1Ew6Q2AiaLlOZOycf//dwC5OfGbqrMnrnt02dh4fQCZ5GTce02ahGwCFgExhoB0SqVzDWUc0pc08rDysGSP8hFsgqpFQwqzIRWKHIto6G7bNS0zE7xsavE50tjmIYUxiO2MmpN0TNljpDMkFm7pAhnL8rnatTYZ5GJMjl8CcybloU9NZkIxZqUFL0JNtciYBGY5Aj0cXk71z+ip7cHPZxG3UvS8JyfmBgOwq3CPhrq0ZLupRcyi3gayfTyStgSml5eBpKW0UjTH2A6LicnSyXZ5mZkUJsuxEULpuOK5XOxYHo58nOykJIm1Y6e6+gK4mebX8GN1xdh6YI8SN97PC7EO3Wwqh2PP96CT11wLjLSY2v88dRry1gELAKTCwEh9taWNuysOYZn3t+PV/ZUY19tE1q5GLJn+JrhXKIkBO72QvaRvAAreeL6Imnu4ezBf4XU3U5fDG65Z1o0Yn9aKirKCnDD6vn47KaLMLNiGTKypyAtI4/ELl8j8ZGv5wlcQgG9va4KqdkvYm4F567HSexSjZQtK83A3hPVyJr5Yb54tBvMdRKbtAhYBM5wBPpQ1NuNGYuacfG6Whw5vB3/8bsX8es39+Hg8abhLohUInSHkbCWcqLFa+iptUumELmEokZrKDLxpsau8f2UR3VSiQxqrqwow1/fsB4XrL0KWcXzkJqexxxWKwXCfyQyYidXebK5EX9333fx9VvzUFoSeYZMpJN1d4fw4uuN8IU24cLVl7ELyWrvkbCycovAmY0AGUcsD/axO6anFW0N+/Hya7/BnY++hncPHifBiwKekJvH0qKF99Cr9q5pL81dKG+QF7KO5By6ZaaGWk7T7lDzPUMZ1DxrahF++tlLcOmln0FO2QoSO7VhMUwpKv2Q03hWM0goVyJ9W9LP1dUdREdXJ9o62tDS3oKGkyfwy2fvx9pVIRQUkpS1tYNqiJ7wcV78OUvz8D+vPslPrLaohaUtwR7ZcIWGx/i3q7uL97rPaY+E1lkELAKTGQESTArpNNWHFH8+ckqXY+Olt+CeWy7GwmmFzvjiCK5+GOx1SjNXdo0nlBeC298WreEyeFqYE8B3rl2NDZf9ETLyZzkgDFki6lGJkLcQZZDkLV5IvFt8L8m8rQlHjldhd+U2vLF9KzZvfQa/3vwQfvHbB/H7P/wWGy8ENqwtRgbnrg/HyTsnjeMDbW1tqDoSxJSSGQMvolS+rEwnbXryxScwb+Z852XzwBMPYPb02fjTf/omLluzgV8tdlqliZeNWwQmLwIkDk4SSSPJFxZXILfrAF7eU4v2oCjhcbu7WVK0QtHSzVDibk+R40Q+4BLpc5eDhPxN506beQNxWRl64cIpuPyCjfDnTWctsU8rrewKdpJUK/HEy4+j5ngtWtvb0NHZwf7wXpQV+zF9SgCzpgYwk/7CeZk0LZDGjQOnc3bLNOe9IatQxaTASFw6XwwfuawUT7/wKu782QtYULEQqxeegyXzz2Y75DpSkO7zoZefXe38cgjbC+5DJ9ve2xtCQ3OTo8GPpA2jcax8PYS/KcxR/EHPwmic5gyoIzyrq487VKZQU0vEBpGgHZIBtlAP0vRrTsMzALlRv0RqX9Jf0Sf3Ic2X0L0Y9bZ4VUiC9+dOx6a1G3D+2wfw7AfVifS/K3FpqGdwp1U+JFSWjfuAITUMJfwhRdI4A+ayRVwZWr6MXy7x9Vt3kSgf+t2D2FfzCm6/dQ6171LexZIwd6b0OTdSBj1FgZbpjRJ3eneGnH1kAgEmEPDhmo1TcMXFvSTINryz/Qn88P6fo/Z4FwIcCD5vybmYT429mV8SLe2tzmtVyD7U5zx6I2vACI8WQukN9bJtjWjtOoa+1FaO4HdRRrPGlFsXPwIpfNhSqZj4UjPQ3p6KoqwZKC4oZ5qf4jEePnmxdlE5OVy5Dzi6G3OCLfB1dfHm8B44Fkjtizb+O8GSnJgRolJVQ+XqRF45pixYhdLyGUj3J9cXskwSKZ6xEhuXzsbzO44mQu4Kh3KzhiqPFQ5RoWNVECvf84RpfIOtWrAAvoD0sceuQrSbmmNVqD7xOom9gtYbZdz29DlpcXo6NfT08Ltw3TkFOPfsPPSK1kVFrO5EFQ4d2Y0dBw7jG//yGtJTM0meKaisWuFoajImcDqcEEqQL8nD9ZXIzDmJvgDHBHgv0vmClX/x3IvT0e7kPSfvN/+n8L4HMoJoDe7F0YPVmD9lMbKzckn8g7vq9DqEtoXY9/7hJSxqrKTWTmWkqBgoncKtwHgfSFT2XihacYQCaE8PUnu6MKOlBVMaqnFwy2E0n3Ue5i5ZDX9mII5KxqsIeSNQiNULFlIBfYMnlXG5YTmTOM24uzLJE4Sgmru7QKx0tMqHHCufrrOmzeRYQ+aQPC9BN8lw6/YttPFShoI4VpR61TGWMtmazxc49cLJzk5DebkfVUdP4uqNM2TAHP/2q/040vwo39SdePmtF3DFhR8d93733u5uHDp+ABl5J7kqK4Dc8kXILKzgw5+PFM7bT+nvVhpLrCZT3X3OTAjOXe5qQ/DkUbTW7kWarx5V9bsxrXc+n9VCTw2+J9iFyndewcK6/UgvpqWOledx54O5QG4+tQZqmnYNReKPSZAkGWQXbWMD/Pt2Yd5bW9F84G3somK4dNU6jpUNl9oSb0qsI1LTMjBrSsVwuo0S4ll3O8YHAZJ7DueJp6RIl0zs9ormfuT4UVzOWS6ycjXZnbPaloSfxrGFbJK+9G8HaF1y3ap8/McjPXj/wG+xfMEyVEzl1E/XQOxYXVuIRHSi+QQCec1IzctBwZxzESiexRcsySSChjlWbZlU9aYH4MvM4wuzjC/K6Wg88Aaf6Bp+HVUhL5sroF2L8GRCQPWhvZhzdA9fqlRuLrkcmLcQyGBc70McX7OTCsPRuBh5KWZnAwX8AiqfhrS8fOQ+8wRwcBuwnEYVk4jcU9LSkZ0bX69FnNAIKZpeDnO0dfN47+9Is8Sp+MhYlt0BcfC6czYffyBLZi/G/kPt7JIc0uZTLUrmGNGSqZQZnNt/87Wl+If//CdO1WwftxbLC6a+5Sj7JUPILp8XJvZ0g1DGrSWT8EQkY/nqSc8pQd6MZfDl5NDYXBeVF49nlV+hbfveQbr0ry8+m8S+CMjMcrrHnK4YS+zDe0AEN/GiLGXnkNDPhe+shViYFuJCHI/7MLyzjNJRbOPov2xi8nEi5O6+0JiVuw+Il91lsdCaZevwyLMNqOeeptK1PWEdUfLTEFkLBzTHc767EE1WXg98GVnIoIbpaOwTFsTkbHgK12ikZ5dwBlgpsrJ5oz1+EUI0C7tbqdHzp7ZgsTwMYVJKzkuamK0SkpevojlnISPpiP30QToSctdWezzSmjW8UCoszC/GTR/+Ev7unkOob5rAG1bzxSRTIjP8Af72Rx2qqACnp3PQiS/KdHYjDHQBRD3CZiaEAG9nKrsHfIFsTseLNPOoD+nBID+aWbigKKxpJnQSWzguBKSLq5D4TmhNMOKVDos4RoPcI7ZoJBkyILJ43jJce8ktuPv+ajSd5A8kQSeaclcwlLBVxxCPE9MDI3XSFy9G0ra81YIbN36CBE+tbRxdXwqvgd1hKdZswhihHp7rnpbip74oM6I8PjFFxJkdTh5fAtaNEQJCfxmcJcNZataFEUhacpfmyarOdcsvwIfX3Ix/f6gWJ1sSm1IY7O7Dw08cRgO7djo7e7nCNYSgkH0356tTm5bfnVh/FCeh+GCwF9XV7Xhpy3H+Jj1+rE7p2H/kxSKP2Y1XzsXBw6VYd/aFtA0/PuPX2ro+mWfvrAEY3/Pq+c+IkF0zKXyBRn1SdNyI87KdfuIzApjxvkj+2qwSMwj0pP/V+6ntrl68Fo3NDXjkmedJlmXIyY6v2WKo7OoPT8fDTx5GR3svZkzlQBafgaULclExI4s2FPpQU9OKqVOz0dDIect8eew80IxDVR349MdnDnujDvky7OoK4aGnjiHgW4kvffyTyMnioI/0DZ4Wd7rOe1ouNnlPetruf/JCMvoti/qaHf3TJXGNSa25K26ZnDa24bxNSO9bhUefraMRr6EavEOo1MzbOno5eNlDUwU9TtdKFqcmfuLaCqw/r4TrjfpwzvJ8dHV2014ZL52cJxtiNzd1oZurBB/73RFU1ZDYb5yJ/Hz51O5zZut0dPU69bXyBaGavrbNHYrGLufffaAD5XkbcOPlNyE/W/q8LcG6sbJpi4BFYOwQiE8FHrvzx11zViAH12z4OO59tA7Pvcw58BeXci75qYVE0kf+8NM1eLcqF/v27kdORgjXXDYTKxYVoKTIhzmzszFnVhY1aB/KywKOQTA5eVFxJo5Ut2EKd136wmfmOmSeRns04ZdDCvYd6sBLbzVgR2UXl5kD3/7j6bRpw01FPLhaXjDHT3TiX+47jPKSs7Bp3RXIzmQ/q1fhuK/cFrQIWAQsAokjMGHIXbg0NycPn7/2S7jnkX/lcu9GXLSmkIOUYYKXwfKiwmxcsfoWPP2bR7Bn53akTL0O7zT24IPfbUEjVwdOL8vArddMoT2QdGfBkcAlVh+nzchGc0s3tu3rwJZ3m/DBniaOQ2bi/Es+hOXnnI+b/nQ515zk4slf3ovO7redAXk3X4vG3tTcjbvuP4ZbPno7rUMuJLFLN5DHWyDx+2SPsAhYBCwCCSEwYchdrkpoMj+vAF+4/iu45+G7UZTXguVL8h3Lj2ISYNn8bNz71CP42p9/DzveewsXb7rK2WDjqk/+EXo4Ha2uZj9efOLPsH5pNmbMzA3zLrXtTnbl3Pvraizf8AXc8JXV+OBP/4Smhbvxyc9/HfmFJSyXgsYTddjywhO47nYuIzY6s6SHr5cDr4c4CLv1vTZ87yvfw4zyWf0rFS2xy32zLskRkIdYBt8ldK2wHdRyx9Acn2nzBzCogE0kEwIGTSVTsyK3ReiyIK+QBP9VPPxMD47WdfZr0ikoLU7HnKI6vLb5Maxec4HzMujlCsEQZ8ZUH9qDu//mdqxflouC/MFTEsUe2Lol2XjjpWeQy+XMf/eT/8Q/3PMg8nieXm7Acbz2MH78/TvwqU35XIl46n0o3TAyA2fn3hbcdd8JXHD2xbT5Pp2/DyljiT3yXbQ5SYOAzBZrPAFsfw/Y+T4484AkLyxvOEk3NQI7mL9/J9DWOrSMUdxGkwOBU0yVHO2JqxWyGKgwrwhf+8Qd+PaP/x9+9K3F7Eun7eSMVGc2zXOvPYu/+fojmDZrCWUB1B05jOm5DfjkhixMmZLp2HcJcmpkrzzY/C9z0c9ZUcR0Pb5/x4249KqbMWv+YtQe3sfn+U289/oz+OTGPKxcUjQwg0ae9y4OtL76dhNefysL3/rct/E8rf6N90KluACzhSwCXgjIQ3yyCXjlOWDXjrA+Mp92b8T+jS64om0c1B8Hnv0NUFMdnm64/uKw8TOZVz5JdZgQbe7Lwr9Ilj694Ew22YQkdwFRukqyaaips4NPF59RR8Y/2bS9fuVFJfjQ2kLOgGmhTfUWNDX0USHJxrx5+ejuDKG2qg1PP3qU0yDbqJmHMH9BHj7y8elYOjcXC2bloL59M+rf/63T3bNhbiZuWDWNNt25s4phxKyHXwMvbm3EocMV+OqnPotMZwVquB3273AR4PwkkomMX6Q63QOTlDmGC89oHyfkXncEOLCfBE7tXRxN6IKbPWPDR0jwtGB54hjw2K+AqsrwYiy5L7u3h00piPGzScjuvST2QzVbkJtVwnG8s/i7j28PCge/JPozYcldMBSCT/eLXfLBiKrt9RAXj1QfbuVOSSkomZGDA9ub8eDPK1EUSsMckvHM9FyaW6WF5WrOSf/hAbT4enDZ1VNx9poiLJwToIYf3gTEq4tR5rE/+fuTuPNLn+FUR06vdPZPHdwOm4ofASH0Xu5e1VCzF62t9Zg6ZwUCNKE75ObGX6UtGQsB+d0ESNBZ9PKQy0rajg7gfXbRiMK0aBmw5WXg0IHwpiLyMhByF0Ndk3jBUKivB4dr36WSEaKp8hPc6W0tv9gHd+XGgjYZ8ic0uQuA0XYTkhk05WWZaOGMmX//0V70HevFKl8O/CR7sTGv7wQf7cjNo8VEWUj4/mP17Huvx2e+MhdF5dKF43GbWC6lLxVzps7njBj5NA3XJC8b64aHQG9PEG89/XO8+/xDjuZYUrEAV912N1eUk0isGxsE5AcyZQawiiZyuU8wamtlqXaY4N97mxo6+9e5yQjnB/OHxodedjmaNRsc0CLBUzGapM+7MIOPK4/bu9txsOYtXqYPM6ecy/car38COS/qmhDN56PGrSi7MLVM9k70brI8j7U1Xbj37/ei9Hgq5pLAfSzMx9dZ0CSb5nXz7dxDL1X4mVfhy0DFSR/++bs7UbW3lYOxHnWzcCpfEOZupELshbTZbAneA69YIt6onq4O7NryPwi2NXMPhnbUc7yj4yS7CuQmWjd2CIi9I5rLdfrZZ1acmi3TRVtOzc38rKU2r8Q+dz7LbQJmzp3UM2Z8JPGVi65HZkYuN7vnRivVr3Mjnjf4jqPZ5gnkJiy5y4YexxqOYtWSXKdv3MRcVpHK89hBcwIP3L0fM4N+9PJKd3PnljdJHq93tGCbvwPbAp14qb0ZL7Y0Yzt312nndDCuQYWfhglW+rLxi5/sR3MjTQ7L28DlpBuhubWZ5wmTj5+fqRvXcRXtJP5cdUEwaskQ36C1e9/h/eKMDMLpI+F0cyP0F//re+jmfbFujBGQvvNlq4CNVwHTqcnr52r/s+2kK2azH57EPmcBbxA/+Cep1h5GOoUmnMu4NejH+gk+SA3+DRL8Vofsx/hujFr1E7ZbRnYaOtZQh9nTswYNdAqx1x/vQGFxAAepeaewr2Vndxsu/FAZrr6kFP6sVO4rGkI7TRjIoGiG38cuRB86mns4aaAOO7a3IL2lD6X8BC0PZaB6f5szCyfLtd2fQ+78ZFVylztiiX14z2VvdxDbXn6ESmIP0rjwa/65l2DPa7/DscrdJPcOmiy2XTPDQzaBo2SrvzLu6epluVSIvKwcmErin/TEHsZMbPVnZ0/FqoXX491dD6Mj2Op00aSxi2b61DXknOSnzgmrufeyH3Bn5S5MKc2gYnGqX0aUjRMNXc7c9rOW5eHLf7UYt925GBuvm46C8gzafemmDyKHZF1C0wNpvj4cPdaO4qkZuOamCtz214txzddmI39NACdyepDLrf72V7Y4ZgnMn4qcp72zfRC5m/k2Hh8C8nLs6e5E9Z732WWWivOuuBkL1lyJNJJNMNSNo/ve5r1k14B1Y4eATAluPgk88ygHTw8O7QqTPvedHwDvvsn5v51D88euZae15hQ+j9nU4FcsvM6ZMeN00dS8yQH/GmLg8Tl/Wls79OTJ//oZ2mZH0sMf/Hv73sOnrps56AtRlIyiAj/27uXDSicrV0s5qOrzpzrlptAypBCz9o1n55HkSzj1TgzHSHk/Z9aUp2PhuXmYtSwbXZwWtWB+HgdTTr1ApJwYFevg1mmsyroRICBdMtW73uACyaCzdd2cVZdxIkY6Mjgjo7epAdtfeBgzl1wAvx1YHQHKUQ6VH0MDpztu/i2wjQQus75EJl0z4nUw9ST731/czFV77Hc+94LwjJlJ3TUTxsz5nQe5FoDO4QxiMlGmRk5Ychd6be88ScD5qWg40eLLpmSjpIx2Xejk+ZObos+hGQ8fxjwOjqqT/IKSAPKp1YdfAvKMn8rXchJ200SB2S1j5tl4fAj0cBxk62/uIaeExzZ+/YNbHdx7OC1StKO6Q7s5wMquMUvu8QGaSCl5wGXl6cvPc4UqV5/yeXbAlyXbpeyiKeCmztWHOfedxC6zaJpIcq9xaqQsXpIZNpN4EZPAKFMiG5sO0Az4Ziee7svEsnk0BpjNLiqZaZTkLvlbGAFAWeySQ3O9XrQrRC6atnghZiX2CFUNEUt5OU6PH1KAAqc7QVaxWTdsBATDXmqCbY3Hna9cv59TT3lH0/jD8XMdQog3QmwCVe96jV0zJB7rRhcBIfcTnP5YdTCskUta+tSnUWG6lIOnH7keOP9C0A5HWEsSgpcZNAd20yBTO9vC8pPUyQpVIfZt+57mWFAnYcnEgopLuP3nbPIJ5/pPADchNXeZKXO8/gjWry5GOjfkSNTJI+nYZWfEWXXq9YaIUalo+AFapBzGoTFqPnOyZW77ri2P88cTpBIYwNV3/CuKps7hj4eD3u0t+MV3b0aQM5Lef+6/MW/1Rq5a5aCfdaOHgGgxsvVfNr0sThI/dRqJ/XJg/iLOEOA0yfMv4iInfgW/RO1e+uVlNlhOfjgcvZYkVU0yWaO+cS927H8W3b1hYl80+zLarlpEpW/iUObEaalx+6W//f0DH+CStST3/r5yIztiVBSTHpob6KRNmJpaDoZynGgaFyr5aRc+wK+ARJx0Rxayb38CfJ0lclnjWlZejLIKUGbDFND6ZvG0+cjI4uIYujSfn1Y6r8e2Fx51NvkOb1roZNk/o4WAkHvZVODCyzhQVRrW2lecQ4KfSWIniUs+zWyDZq+58QENh7FPPosvguUsI6HkT0LXy4H8XZWbHWKXrpil867kON5cErto7BPnmhNjtCS5kb3U3A9UV2LD+vi6XITUZacl2aXp5a0NeOrFE2hsacWNV0yjqd9KlBZl4oufmov8XB8/v+L7EpAVruXFnKkzSR/w8bjVadwjd8XGz2D+OZvg46YmZr+6zHU/76NfwJL11yCDmqJfbONbN/oI8B5gwRJgLg2GpcinLClBNBZ9riWUvvWFy4B51OYl7ZSZOCSXKGhyZansevGnZ+OsmReR2OdMKI1dr3dCkrt8NtXW13ImTKFeh2fo9IvT1rqQ+ktvNOCJ5+vx6StvwZ1/vAw/e/jHuPjcdFx+0VRU0v7MX/zzB7jpoxVYubSAFibTB55tz4oplGe8tJCfrREGWyMdZ+UmAlzmzX72/LJZp8hkIFvzKjzyBgrZyEgRECaTPuT+TW88q5OHPVYZzwMnplDsyJy/4nMcUZBxN47rTdDP8/jU1CS7R/I8yiIC2STDywmpy7Z7zVyh+vvXG/HNv6+ifbCN+OH/uQurFq1FgP30qxctYZdACnK52faSs/Lw1U/Px95Drfjbn+3iPPlOx067V90qE429mPusBrs4sCSfBtYNHwEhj0guWl6kY6zcIjBCBNLYHeOjKZLw4GmU53OE5xnLwyek5u7joM7apedi78F3sWJp2sCgqpB6kN0v7ST1199vweZXO7BpzRX4269d7OxlGuTA3Z333IkPX5CKyy4sQFcwTMrSb7+IBD9/di6aTgbxg5/uxofWleKic0uQk5PuzJwZchN4v8XaZDTDZUOOsQKLgEXAIjBOCIxEc1d1VcNxajK/IEnul553OX75VBt27GmjjZceZ0Nr2cP08WeO4zs/OYrs9CvxV1/8ATauvRL57LOVhTF97FPs66vDeSuzHaulhYUcEO1/KacxksGFTmUlmfj2nyx2DIZ9/6e7sOdACzpoA950Th8+vwx2HGjjZxv7LK2zCFgELAJJhsCE1NwFwzwS9p/977/AI8//Cj/979epXYfYleLDl274Mq48fwlnvwS4nF0Gh8LsLW+gEBfKTKW5Ah+7ZXppc8a96lTqlWmWh4+2YdNF5Vizqgjf/tE2LJ2fj5uvreALgVo8qwsGQ9jGl0pqqIJfDadM/srx1lkELAIWgVFGYFgKdCLkPqwTjPJFDlQn88yLCotxy9Wfx01XfpYkLguFOW3XL4bEjNF+PYLqdidNBJeXBqi99+HtbY1YtaxwYNs8LdZJLf2B31ThG59bgFzan/nuHcvw5/+wHd/44R520xTRrK8fO/a18sUxC1+8/kvcgYkW9ZLeJdWtS3q0EmugxTYxvMaqNO+DfFKfGU4uVH3EK06E3CNWcroyuP6UXSmZ9LFbINTfRTOyJZybHuzuw70PVeKfxGaM028uxwtWKZzb2odN68vxl3ftxOwZWfj0VTPx+Rtm47ktmbh42c3Iz8/DxnOynMEWh9i1Xyd2E05DCb7kaBQqxHm7tvtojODnzK2+aCuV5cNRZqJwLMjZ5cjY3GWMWnRmVis/X1oQJSWcKU6uWJyG4ZTx103uYYYzCkyWqHS3HK0/ysV2YQNi8ptrau3Gr5+qRn1TJ7tppM89BUfqunDZ+SW47TPz2bWTimdfqeOS43Sa+ezAvur9uHT6JqfPX14ESe+4W5QMHoTElK5d3DkGt4sqA/GVRS8poUjPAwfdOd6Twq9GtLaE9yVNaoVgDGAajypFa29r5Zki3YfxaMSonyMicbvO5FlOyT1eUtdKNHSdI3mT0uC2zk5k5aY5/eZ+Dp7e/8hBfPl/zXVWuYotGRk2PXCwlXbiO2nDuRH7uZH2bqazuHr1r766GHfd9yjOW3IeFzVwNd8EeIb6etIcc7k93JwkPbPfPkjy3qKJ1zI+VCFaUezt5EbrXO3s9VBwti3asgLIaachtJoqLomeLoaLJt61JnuLuWq9r6YanVTiOAo2GV28nDtQTsl9JGAMVDaSSsb8WOlz55z00rLU8HcMWy2rUgsLuBDJcEsX5WNxKJ+9GdKdQcNW7KYRHs/MSMOtN0zB829uxjWXfpyr1+LoCzLqHe+ozOHv7mJ3AHcyCp6s4SrPUqR6bcQw3g2bROcT0wnBtnp0NdVxFyluS5fHh8r10u/lApjK7AIsPtEA3/Z3wjZbiksswY/mc8CvJ5w4htDubahlF9ks1j2JXp9e/OolG4Joohhope5wSMVDBXrI0JzxkMgqs8KcAhJ2+PfX1t6DXk5n7OjsRVt7Nw3wB7mJR4+T7gpyd1WZTUNtPpMafgaJvZdEn5Pl436rtAQ5AQZuZMA5x1dMA1y8tlruR9pw0NlzVggp3P7Tez/G456PyTl472VAvo+aYnfbCbRWb0M77c6n9MpAvYvZ2QCxR1Iy52y0FlFhqKbm/vJmoP5Ev910vRdj0tLJXan8BuXHLGaKj9ag78mH0dlwApU0leB8RE38q3f/QDWtoXmFnrKRau5elZonDcd5I0LBflvRQ5//oeXHQJLKT+FppdPw+q5WzJlVjI9tZPzdBuxht4tcRM2xDhw60o4irjoVQp9bkY2Fc3ORE+A2fLRYKNvy3f/4MfzjHbclvdYu8DnkHihASwM1y5RGNPVuRVfrcQQKOX0zkOsY40Kq7YhP5FGTF2MfF8LJvq7dJ4+hrW4vCaUOPW0k8Jxp7O4bqivJfSjIK0fd/FVI3/0mMt55A6nHapB69iruVzorvOmF7GFq++HjvxVC6h0cPG2mffmqA+h75030nGzCscI8zF16ISdJJNtzzfZSGRimE3qKh2eHlImH3N0HaVrDmG2Wgi2tjSgOyW47p8eympgLyM8tpImBNlyVWoIrL53maGAfovYuxL17fwsefOowbv3YbJJ6jqO1Hz7ajseeO46LV1zFTbPT8KOvr3QWRE2EHyJNqvEllYOi3GmobzlCu+j16O5oRuvh7bwHJCFLJjGfW88C1M5D1A37qDGGuqm9t6ajNHsGv+oKnReq+xi5D37OkMkvqUAVbdc37fwD5lGDLz5STbv18lvgr8ND43fXY9NuBIgbH2PSJupJ9g1lxcihaZG8wqme98F99Him5Suvtbmh/4s57jMLbYp3Oy+Zu4yTjkbugps4UUckrmqJVq6hlpOynk4MfR2oqUTFgk6+VU/fcEdqKrffO9SBZna/FNACJH+bOEijYf/20EEsnJ2D73xtidMHr4ub5tIcwYbz+lB7tJ4mC65CQKzjTSBSFA0mOyOXL6pZaO86SS3+ONIyeNEpPQilyser3kLP22aFgxAIf3KmhDggz8VxfUEfAmnlfHly9TMNTfnTI693SOV9CGRkYer0+cgM5KO6chvS2ppQ2MVZNpzJ1D8aO+hsNhEFAfkN+tLQx83tGwKZOFYwDdPmnc1JA1nIpCVHeaEmj+O4XU8H+e+QM443wnbF5Fqz/mjkbpaTeDSCd5cdlJZ9Mt/euwfrz6/nQ86tu04TQQYCWbjtE7fjO3f/K85ZmsPtsxpo2dGPb35xEeevszsmQ99f4eaL7Zj5s7NoIvg9h9xPV7sHgZlAQjT0DJKK3DhnN/cMbrJgCT0BBCMVJXmIuXPqOz7uXORP58I56QqI8FyHtfdsWXLATdl9nFpb7GhKbdJvLM6+Y8M4xPvX4G4/MZ9BLyai/TT2lS6TBiLch3irH91y3AC+o4H8t5f3P6HRAHkq3D5a0/Qp0hBucpcMgU5Dd2VK8FqBhu5yg9I9Pb14dlsVPlH1B1TkcEPrKFrOoANHOZHGLqGzF67CX5b9AHUNR7H13R/hz744F8UkeC8n/aWZgVQ0NNfyxiT00vSq7rTIUjjBPZBBbSa105kWGR5QlRs8Ma/ntIBonFSeCYfWnQ3TfcjgpiKysUgsQpEB/UzarO8OpqGHL4I+/tCF2537YdRvo/EhENbOaZJX7IHwd+2njSef7ByVVMTO+8uu6Prqd/Dc9kPcKChhchcwlGM1jA8gllJylwON92HU45XgzTDqAbJRxluVJ/DYyy/gC9OWI6toAW32np5BDx/tM5cVT0WAGy7LrmIyxTGak/nvZcWpE9psewqvOZCaPfDGltW61g0PgVM/klOxeAlFvqT87NrzcyZ2+Adn78Tw7oJJVonfh+GeM9Hj+ri4raNhPx55aTO2HqhzLNYmWIdqYOYPVuLiJU/zPatVcjcztSIDNTN7UFwJXnYvjsjWUmFzRxA//v1OLJz6n7jkkk9x1oYQvPRTxnOaQecccUK0L5nZ0BnkwocYROejhrZiUR41d7lEuZLxb++IL1gq4DVry0/FRqVmW0kiCPRrluF7Ye9EItBNnLIyVbaDM6n24aWXHsRdz+9EUxtXKMfvuGhigJiEdJSThW/NtNSoeRIf5MxOZq9CWpG7UkmLFydhoxOL8kfmiVfWNeOOX76Gh558AE2HtyLUfpxHK2lGOXgMsoTU29o5tc3rqo3zyeDqgjkBPPr7x2gNUjC3ziJgEbAIeCFAKmQ3TG/7CZysfp08d7/Dd4fqTlI5jEE0g6vjHM8BEjc5eHCpcCpixV6au1mBViyKhsaFzPWloPH9lJWZB3rFe3pD2HekCd/69Wt4cVcN7rjqIsyaswyZuTOpxBex60z7zFTH9KpldGQp1MTzsmWnlejnkj696TQT/MD+HejZ0MFBm+jlR6d1thaLgEUg+RHop0SyYF+oiwOnjehsrsLe/e/jrqdfxXM7qlDb1IoeLohM0AmfCrcq58aqQPM1dE4XjdylYCQmU1KXSiT+Bv06ScRyPZyTWtPYil++sQcv7j2CdXNewMdWz8WKWWWcnhggwUc6ZayaE8tvZ5dMdoBT0eI4naz1aThZhYbdD6DTH7H3KbEG2NIWAYvAxEZApj9RIxczJQ2tHXj/UB0effcQXt9fi2PkuA5OdRVyHIYTPhX+VS9VaFxCd7UiM52T9iJ3yRDK01APkrR6kekJpOxT9LeLMB4ny7fbOrtRWduE6hPNePSdSmfAcjx7IDPS0/Cxi6ejsTnIvvfog6rtNFHQ0tWFld/8L86N18uO50ptGYuAReBMQUAsz/aQH4JctCS8PwInfKpcK6GQjpmWqlUmcXWDzirEbOqu2t2ickmbcUmbXl4Omv4V4+vpJ4QTjT2TdrbT073eb0MvIUh7MzIAa51FwCJgERhDBF5l3Z+kF/KWuZMSRvPMdvLN0CF5JW7JEKdpd6gEHikU1ZfGMvBEfx0MrLMIWAQsAhaBBBAQUr6K/l16JXcvglctXklfTqEyjdNgymDN3U3qZloO8nJSRlwdfTH9SklYZxGwCFgELAIJIXAfSz9Ir6SthB0plMolT5yG4RT/RiL3gQKMCHnLgW6il7Ro8uIkLu5l+jX0MyVhnUXAImARsAjEhcAWlvoavfT9Ct8qwbtDZjn5SuaRQk9yl4O9iFwJ3MzXuITipCGb6UV7twRPEKyzCFgELAIxEHiN+V+gb6NXMhfSVs/oQFzyldAlLk7T4VT4b59bcxexErtZUGRSgZlnkr1ZlvuJ4TH6AvoV9JHKMcs6i4BFwCJwxiIgnHofvWjsJrG7Cd5MC1hK5u5Q8gackLs4k4Alrml33Cncn+9VRvOlMb+nf55+Nn0FvXUWAYuARcAiEEZAZsV8mf4X9OagqRC2eiV1igZkSuiSJ07T7vggEndK9v9xk7qmJZR+dk1rXGfRaL4pF9lS+ivppT9+Hn0hvZ/eOouARcAiMNkRELslTfT76WWBksxj30Gv5C2hkLQZalzlkhYXKZS8QUQvxCtOw3DqVFrk6iVPSFuckrfkadwrVJnWYZaXuDjN07gj7Jdr3IYWAYuARSCZERBiHUSuRtqLkE2ZxJXEzdArLhjosZIvXpyGA3FdwSMZSraaqWk9SNJaTmVSVk4kJG6G5rESN0le66B4gNi1vIaSJ86dDkvtX4uARcAicPoRMHlQWyMyU65E7BVqWcmLJy7n0Hokbp5H0oOckvsgoZGQg5Vgo1UkJ1SCl/J6jFQlcq1H8zSUfC0bKZQy1lkELAIWgWRFQPjNzY+mTAlZZRqqXMJoMskTp2G0uFNQ/kQjd6lICVfjZuUDlfRHpIFSXsncnS9ycVLG9I6wXyZxPafKbWgRsAhYBCYKAsKRJk8qgUv7NR5PqPVoKMdrvaZM5KbTMoPIXYRexKpyMzQrk7jkKXlrw73KaP1aVsoo0ZvltZyGZp6NWwQsAhaBZEFAuE+827nlyoumXGWxQqlby0jcPJ8Zl7wB5yZPd1oKqswrFJkp17SGcrwSuSkz41JGnJcsnGP/WgQsAhaBiYOAScTSajPtFVeZF/GbMnddbmIflBZCdbtoMs0zw2hxyfPKl3OaedoGLav5KrehRcAiYBFIZgTcJGy2VclbZLHiZj1mWfexkjbJ3IxL3gDxOgnjj0myKlaZO5R8kZnyWHH3MZI2nR6vMnda5Ta0CFgELAKnCwElVA292hGNoOU4PdaMSz3mce48ydfjJC7OnR4g5HD24L9ehGrKNB4t1DypWeLutMoljOTMY9xlouW5y9q0RcAiYBEYDgJDiLO/kkhy8xwmSYtcjjGPc6djldc6JFRn1qeyQWQ7IOyPRCJOU65xDeVQjWuoMjMdSSbyWM5dT6zyNt8iYBGwCIwGAp4kGqNiN1lLcTehi8xdzquM1/m9ZFLfABE7CY8/0YjUzNO4hlqVpN0yyVOZhlrehhYBi4BFYLIh4EXUco1uQheZkrWGIhPnTkeSOYXlT7zkGqmcW65pDQdO1B8ReaQ8LRsrX8rFU0brs6FFwCJgERgpAl7katYZK1/KSplI5SLlRStvnn9IPBGSjFbWK09lGg45uSHQMhoaWTZqEbAIWAQmDAJKxhpGa7iW0dAs6yWT/Ehy81gnPhwyjXVMpHxTbsaHNMoKLAIWAYvAJERAiVlDr0scbt6QukZCsvEcO9Iy8Rw/5KKswCJgEbAIjBMCkcg4ktyrWbHKxsr3qnPU+q4TIeFEyno22gotAhYBi8AERSBeoo63XEQYxopoR6ve0aonIgA2wyJgEbAIjBCBERMxzz8adQy6jP8PbQjAaNpzXPgAAAAASUVORK5CYII=;" vertex="1" parent="WIyWlLk6GJQsqaUBKTNV-1">
          <mxGeometry x="590" y="370" width="375" height="114" as="geometry" />
        </mxCell>
        <mxCell id="ntf6u-JNqa4Ea9aM1wRL-12" style="edgeStyle=orthogonalEdgeStyle;rounded=0;orthogonalLoop=1;jettySize=auto;html=1;entryX=0;entryY=0.5;entryDx=0;entryDy=0;" edge="1" parent="WIyWlLk6GJQsqaUBKTNV-1" source="ntf6u-JNqa4Ea9aM1wRL-10" target="ntf6u-JNqa4Ea9aM1wRL-9">
          <mxGeometry relative="1" as="geometry" />
        </mxCell>
        <mxCell id="ntf6u-JNqa4Ea9aM1wRL-31" style="edgeStyle=orthogonalEdgeStyle;rounded=0;orthogonalLoop=1;jettySize=auto;html=1;entryX=0.5;entryY=1;entryDx=0;entryDy=0;" edge="1" parent="WIyWlLk6GJQsqaUBKTNV-1" source="ntf6u-JNqa4Ea9aM1wRL-10" target="ntf6u-JNqa4Ea9aM1wRL-14">
          <mxGeometry relative="1" as="geometry" />
        </mxCell>
        <mxCell id="ntf6u-JNqa4Ea9aM1wRL-10" value="选项显示错误" style="rounded=1;whiteSpace=wrap;html=1;" vertex="1" parent="WIyWlLk6GJQsqaUBKTNV-1">
          <mxGeometry x="430" y="365" width="120" height="60" as="geometry" />
        </mxCell>
        <mxCell id="ntf6u-JNqa4Ea9aM1wRL-13" style="edgeStyle=orthogonalEdgeStyle;rounded=0;orthogonalLoop=1;jettySize=auto;html=1;entryX=0;entryY=0.5;entryDx=0;entryDy=0;" edge="1" parent="WIyWlLk6GJQsqaUBKTNV-1" source="ntf6u-JNqa4Ea9aM1wRL-11" target="ntf6u-JNqa4Ea9aM1wRL-9">
          <mxGeometry relative="1" as="geometry" />
        </mxCell>
        <mxCell id="ntf6u-JNqa4Ea9aM1wRL-11" value="IP播放错误动画" style="rounded=1;whiteSpace=wrap;html=1;" vertex="1" parent="WIyWlLk6GJQsqaUBKTNV-1">
          <mxGeometry x="430" y="435" width="120" height="60" as="geometry" />
        </mxCell>
        <mxCell id="ntf6u-JNqa4Ea9aM1wRL-17" style="edgeStyle=orthogonalEdgeStyle;rounded=0;orthogonalLoop=1;jettySize=auto;html=1;" edge="1" parent="WIyWlLk6GJQsqaUBKTNV-1" source="ntf6u-JNqa4Ea9aM1wRL-14" target="ntf6u-JNqa4Ea9aM1wRL-16">
          <mxGeometry relative="1" as="geometry" />
        </mxCell>
        <mxCell id="ntf6u-JNqa4Ea9aM1wRL-32" style="edgeStyle=orthogonalEdgeStyle;rounded=0;orthogonalLoop=1;jettySize=auto;html=1;entryX=1;entryY=0.5;entryDx=0;entryDy=0;" edge="1" parent="WIyWlLk6GJQsqaUBKTNV-1" source="ntf6u-JNqa4Ea9aM1wRL-14" target="ntf6u-JNqa4Ea9aM1wRL-28">
          <mxGeometry relative="1" as="geometry">
            <Array as="points">
              <mxPoint x="490" y="190" />
            </Array>
          </mxGeometry>
        </mxCell>
        <mxCell id="ntf6u-JNqa4Ea9aM1wRL-14" value="1秒恢复请选择状态" style="whiteSpace=wrap;html=1;rounded=1;" vertex="1" parent="WIyWlLk6GJQsqaUBKTNV-1">
          <mxGeometry x="430" y="250" width="120" height="60" as="geometry" />
        </mxCell>
        <mxCell id="ntf6u-JNqa4Ea9aM1wRL-16" value="" style="shape=image;verticalLabelPosition=bottom;labelBackgroundColor=default;verticalAlign=top;aspect=fixed;imageAspect=0;image=data:image/png,iVBORw0KGgoAAAANSUhEUgAAAXIAAABnCAYAAAAdSMmVAAABYmlDQ1BJQ0MgUHJvZmlsZQAAKJF1kL1Lw2AQxp9qpWiDtOLQQaWCIkKVmlbBsdZP6FAaxY8tTT9STOtLEhEHwcE/QFCcnNX/IIuDg+5CQcHJRRwchThoifc2alvFeznux8M99x4HtAkyY5oXQLli6pmFmfDa+kbY9wwB/ejEAIZlxWCJdDpFLfiurWHfwcNrdYzPOvWfBzerxtNL95A6GHib+tvfEl25vKFQ/aCMK0w3AU+UOL1jMs77xL06LUV8zLno8gXnrMuX9Z7lTJL4ljigqHKO+JE4km3Si01c1raVrx349kK+siJRDVH2YRZzSNELQ4KIGCYwjUVI/3jidU8SW2DYhY4SilBhkjtBCoOGPPESKlAwjgixiCify2/9+4YNTb0BJq/pq1BDKxwBlg0EDxrayB7QMw9cHTJZl38u67G9RiEmuuy3gI4Tx3ldBXyjQO3ecd4tx6mdAe0P5LU/AcXqY4GSHTNwAAAAOGVYSWZNTQAqAAAACAABh2kABAAAAAEAAAAaAAAAAAACoAIABAAAAAEAAAFyoAMABAAAAAEAAABnAAAAABTkHj8AADhNSURBVHgB7X0HYFzFtfYn7WqlVe8usiTcKzZgiDEl9A6JCQ8IBAJ54dFCAqmEJCT8KQRIQkIakISWF0JJSHh0SCBUg21Mt3HBlm3ZlmxZVi+7Wmn/71zpiKu7d4uKJdmasUczc+ZMuefe/e7cM2dmkrBnXNKeqdbUaiRgJGAksNdLIDzUVzBUgNufevrDO9TXa+ozEjASMBIYLgkkCtiJ8kXt92BANZGyg+VJpHzUizMZRgJGAkYCQyiBaIAbje7WdDzeePludWIgQBmvTLR8O90ed+2YIRoJGAkYCezFElBA1tDtUgaaF1FXfwA1Fq9bntI0jGjcRlAeDW1ZJmokYCRgJDAqJaBArGGsTiqPhnZeN5rkR6Pby1rxRIEzGp+TrmkNnQ0KPVqe8sbLF75EeLQ+ExoJGAkYCfRHAvEANF6+tCU80fii5cXij9n/eIAYK9+ep3ENtVFJO2mSpzQNld+ERgJGAkYCe7MEooF0l8tFKXBrqCzOtNDdaMrfC6i9BFskGsja6RrXUIprXEOl2dPRaEKP55z1xOM3+UYCRgJGAv2VQEzgjFJZNLB21uXkk3wnjzMtTbrRrK7EAkW3PDtN47FCzZPGJO5MK13CaM5exskTK8/Ja9JGAkYCRgLxJBANLKPR7fXFA2ipw15PPH6p287vlhZaH2C1CD1/3ABSac5Q67HT48WdZexta56dpvXZaSZuJGAkYCQwXBJQQNXQrV0nMNvTUk7L2uNSTzQ+bUPLRUu7ArkbaCrNLbTTnHFJO2naGXueneYWV5oJjQSMBIwERloCTiC298cOyvHi9nrsvFKfM20Hc3vcaltBVjviTAtdaW6h0Ox0TWso5ZPlD52dZo935/bNV5oJjQSMBIwERrMEnIBrT7vFleYG4naaXLPyStwJ3n3SAqh2Fy2tdHsocfVShwC2M610Cd3ynHRJixNecRp2p8xfIwEjASOBkZOAE2i1J066ArCdrrR4odSpPM54H/BmZm/aK5w9LhpoKt0eSjya1xF4tNBZztm+tqN0ExoJGAkYCYxGCdiBWvqnACzYp3ENY/Vf6pEyWp+9vOChArY93qc+O5D3yWDCDqgalzCal8bteZIW56TbeSRf0uKihd255q+RgJGAkcDIS0DB1t4TpbkBsOCaArGWkbTyaqh5Ekq+llNcdNYhfMqDWECujBKKk0LRvIK1hsIXLa51OOvUtITqhNc4IwEjASOBkZaAG5AKzU6X0bcdmHU0LqFgmfLay0ncXobJPkAuaXtZe1zyLKdAqaEbXfI0XxoU5wbSSrOHGtc6JLTTpC7N07iE4rTN7pT5ayRgJGAkMDokYAdi6ZE9bQdvyZO0nSZx4XeGdprGydZb1t6GxNVZ8VgjcieQatoOxBqXMFpcys2lP4X+E/RT6fPoffSjxvlTvTjz8HL84UcLkZHuce1XS2sIl/3gLfzztS1obetw5TFEIwEjgTEtgSCvvp5+A/1y+qfoV9MrmDPaZ2Quac0TDFWA17iGgqMK4BFxRSwFaalU4prWuDOUysUL3S0uNKn7APpf03+H/lD6UvpMem2X0ZF3Xk8SZpfm4afXzEPpxAwk69U7uubhVU0sTsMLy3ahvjmAsIrVwWeSRgJGAmNWAoJtGfSCdYJ5F9Ivol9Pv4Peji72OLMsoFaaHV3sceGLcArGERkOglYuoZaRuN0LXb2Mtn9M/wT94fSj1iXxCjL8KTh0XgFmTcmCgHU0l5ycjLlTczB9YiZ8Xrl044wEjASMBOJKQDBQsPAn9IKNipNu+Mlsy2meJBSV7KBjj1sjYztB4xI6vVSmNO2IW5hPvnvpz+jhZzB6XQqRexZH4zdePQ8l4zIgwB7NSV4yh+tJXWG89l4dmtvkK8o4IwEjASOBuBIQZBENhYzO/0UfoHdzdgSyj8Tt8YhyivT2DHtFQrenJe4EdKUJXd42f6A/jH7UO+l4eloKjjqwEFNKMwnS8bucwpH4SUeOw/QJ2fAmUiB+lYbDSMBIYOxIYDEv9Y/00Ubmdkko1gpN0cmOx8qbFG2yU5jVayX2CtzypKEb6PsF4h7qp30eL5I5MvbIkJfe3pA0viec6LcFhxdMzsM3vzgT6f5ooujbehL7l53lw7GLirGqsgEdHTpP0ZfPpIwEjATGjgSs4TJBhR/rCHWGEAp1IdQVFRsEI2+g/x69FFWQZrSP0woEEq0m+uR2Y7RFTwy9uktLZdKg0ytdPhsu6maN/9dLQMxMT8WUcTk4ckYpTpk/GdNLxhMk/Zxs5HzBHkbzUGcXVm6oQE3yNuTnpcZUqTivxpeSjIvOKEdjjQdfPe0Y+FNS9nh/nX0waSMBI4HRIwEZGDY3tWDNth147r2P8PK6bVhfXU/1azsINW5OsPJv9O/0ZFqA7MKoSGjPF5o9HbEgSAtpfZJ20jRPQgV14fkOfSxe4becz5uM8qJcnLVwGi467kiU7jcPqRkTkJyaxZG5fnEo99CHYcqgrrEOjz96LX509X5I9UV7Ibq3LXrywkIfPP4w0iedgLyswgSv3L0+QzUSMBLYmyVApCas5oeDmDi7CUcursb2ratxz3Mv4u8r1mPzzkYEOjudF6iYeS4zJC7eDYjkNaCgLfmSFl6lMfpxBc64Viihem1I0mJio3SJz6N/lj6uSyWIH1BehBs+cziOOPR0pBdMQ3JKFnsi1UkTQ+j4mrT+8ZLD4S5+9tDzc6e1rRWPvvgwCoo+xCmfHIeUlP6329kZxgfrmrF0xXhc/KlL4E9NH8KOm6qMBIwE9k4JCNh0IRxqQkvtBrz6+uP4wT+X4p1NNQiGIsBcLvEk+g/oBaCFQbzEnV6AW7zQxWkotIgRudAU1TQUmjhJq5e0ArnQThVCPOehHnz6hHzccdFRmHPw+fBlTeIrgWqJ3ibj1RCZHyYwiy6qq6uz28s3jnheZ2eoA63BVjS3NqGuqQ41dTXYtmMb1mxeheMWp+How4oGBOLSi2Tq9ieX+nH7A8uwrfoEWryUI4XXIrp+MVMczDVJ/cYZCRgJ7I0SIBxSNZyUkouM4vk49thcjM/y4vN/egGrt9ZSzWLhrv3CBDtX0Su2CngIk6YZtbBWgNteWPJ703ZmjWsoFYpTwLaHolvXtMQfopfZ2KhO5jHzM9Nx62cX4dwzr0ZqTrl1wVELxMnoDIXQHmxDU+turK1Yi4qqzdi2cxtq6mvQFmxCWkoYeTkpKM5PxYSiNEwcn4b8HC+yM7y0G0+GTzy/Dgbjwnxh7K4P4vf/W4nUlMlYMGM+pk2ajuKCElabRJt0acPXDe7yxSFCMM5IwEhg7Egg3In2hk146B+34esPL8PuxraP0bdbCq8zOIdegDrWiFzyFcwFwNUzirCCtiQ0rqGgnMQ1VHWKhkJXQH+T8WL6qC41xYOTF5Tj9iu/iAnTT+RIPDUqb7yMEEfaS999Df/30p9x5MG5KC/xozDHx4nSZHh9SbzCcPfFsIfJBE/LS1yWbPK/pIfKCZi3tXWhsTmEuoYQVnzQgJdX7EJTSydBfTKOOfhoTC2ZjJysfPh8MpHLPnq99AT4IexHItcj6iXpL5Lo5THo/pNIUcMTIQF5zuRZSub7WX4KiTu5B3IvzH1IXGbRObvvg9i6jdYv4XBXANs/fAJX/O4ePPvBVqpYBI973U7GDqFXENdQgdsZSkGtQMOw3WrFDd2EJl6eVI0z2jsa17jsnRLTeTweHDu7HHkTqE5PFnXKwJzouSurKvDS2w/guivLrRG2qDksjCYwDjM2sr0kpHNvFj9H+EUFPkwpS8OZJ/KdJlhJPfqGylewcv0zWL2hmV8MYVrqZGP+tHk47uDjkJtTgPRUbglAdUy3eAcmk/ilwujkZEtjaz2aAjsQTm6miVSAcwZBa94gfnnDoRLoBgy+iJNT0dqajHz/JBTkFltqtUQePpmjaWtvxq7mKv4MmhHsakVXp9wH+f0a1x8JeJK9/OpNQXu7BxkpxZiQX8r7QGOJ4QaBOJ1OYh8LSg7EcXNfwPNrqpxAnsviiq0aCiAoSNtrl3xrCGYnStwO5JqnlWk6VqhDkbjILGqGg6bPQEoq+z0IQbcH2nH3Y/fi6v8u4Q8oZTBVxbqufucJoPNdRe9Bas/Hhoy85s/OxJyZGTgtVIROppPCyRy9b8OLb/wSr73TiItPuwIHzlrIcm63ot/dcC0QCLShsnYT0rLqEfaHOK/sQQofLlrwo0tG58b1SwLWGJC6zvTUIJoDa1G1eSumjZ/NzdayY35lddK+uKa+iktBdqDL34okLi5LIRiJ7UB4EL+JfnV+H2JOkq9L+vQ0sdveynUdVZhcNAdZGXnWl9LouVTeZ38eDpw5iy+eFexWh71rYqYnmCvOjr2CrfLj1DzNd/3BKnrYmaVALKfg7QxjlSHg0uRwYinnNtNi8sXL7OKNq23cDX9a6agB8Wh9/hjcKV7bqy49PQWfOaUYxx7GrQHuuBOlxT9GceEEXk9/bkO0VvvSQx0BbK6pQFp2PZIy0pE1bjLS8ko5R5BDICGYW0Ay9O327cU+khLc4EApHAqiI9CCjoYqNFevhzelFpt3r8GkzulUoeVaz7rzimUyfmddFTpTtwGpycgsmI70oslIycjlyJwqN+tFbu6DU25R08SBLt6Hzo5WBJtq0LJzI1UrW1HTuo5zZ5NRzK+kJMvoIGoNw5hBjYEnDfuNLyMqK2xGNC8ZMgq3PwQSF6+F3EbpzI4ckWslGlpMtj9aoeZraGNxj1oqiMycHrVKwsUiKpN6sjKyaJEin6LanQi2UU2Qa0j1eQjeyfjBlZPx96f/yQVGXyRtcC8550XLS29XYy382c3wZGUjZ8pC+AvLOanu49PBe2DdhoHfC2d7YybtTYMnLZtfOMVIy52EuoplvPRtqNy1mc9mNr+u+j6XMmfT2FKPDq+MxsPIKdsfGRPncFCTznug6kBzH/r7/CR7U3kfsuDLLIKfg5P6tLfQVPkhqmsrOGdWyO+cvvehv/UPJX8SX9QZfMl3/+Yiatab7wwjGKMR+nOldt4BNTgUoz8fR5FHH/hJvLSsnrrGgekV5dtEltaHqMNOxBEPqWMOIxCM+kJMpJoIHgH0tPRkbNhaYemwIxgGSZAJtV1NVejyhpA+bgr8+fshmSBkTc6x7WhP1SCb3feLW+BLAOaPM4WLwbIm7Q9PRiYXtQUElyOc6MWrG7aiI9yMtIJJyJw4G17OjciIUZ4Bcx8iRJYYQe8DVYUefmHmlh/Er81ipGd0ud6HxCrdU1yEz+jqU30I7GGsjuhTpmHMV5YAt3hhjgXi9rxYjQ9JnpdAfsRBR+P9NVlY/nb9gMC1g4D8+LPbsXxlLVpaRL8WHdCDQa4CrWvHUu5B/r8PVqCpMTgk1yGVyAuinX3xp8kWAb33ZMjqF6uIjOwQvGnpSM0r4Se8qOOMG0oJyEvRl1HAkXkRMjIEmCNrF5o/PcgReDLVKVPg8XEkHmVoFlnaUBKRgPx+PKmZSC8so6wJSS73IZF6RhFPv3A1EWanSDSt4bBeuzSaSdXK5edcg5eXp2IZwbyjIzoQu3XOy0mmxQcX4D9La3DL79fiDZoLOusQkG1qCuKpf23HL+5cj1ffrMVJx0zg235owFB63NjSgXv/th0XnHwB1SoDN8d0u0ahiaxSfJ3Uz6XA688mYURuWbTu7Rt0ijSZgwsPR9jhpJC7SQGpySlBS/y+zALeh0R+dvuGeIb1Kvh8e9NlF235dfUPE4a1n5GNyQ/T7cfpRossTcpgn6iEG3JtfYBEaTQvOw9Xnvs1PPWfDqxe3xRzVO1sRuzJx/Gkn8sumIKcTC9eWLoT27a3WCNk5Q1S9fL3x7fhzfd302TQiysumoIS2quLZcpgnbwkGptCePSZGuSkL8CkCZM5UTMEFbt2LMS7TG0hbdeN2xMSoIpFPu1pBSQTodEBhPeBv1VRbbn/ZvdE38ZYnQTy5BQOiPZeSyyBtkQwNYKnv79urcAZDvsTIx3Iz8nH1z53LW574Bb89zkeTC5PdzX/Ev22TPyJCaROZAuYF9Du+/IvTENzY4cVtw9Yfdx/5bzPlHFUHkJmptiJu4uqS5bcygOkEokjCQHxerb3p4e2YUbpCTju2JORtgdG49oNsbv3sHPJBBrj9pAEOMKW+R+Z1Izmuu3E5YVq7kM0GQ2ezuecE/lDO5M1+F4lUIMTPTStob0KoTkftCH5xnNrzN7wHouL5UVRwXhcde438Mt7qlBVHbllZAf1368s34WnX65DRWUADVyB2cxDlEU3LRjsT/WgqIiz3w5LA2siMs3DXQ5Te0Fc9kkIBDpZvhMtXM3Z0hrG+k0BbKps5j4vTtlGXraAeO3uAH7xpy044eBLcNLi05HplyNMh0OEw9FG5DWPDUp/ZNsf3rEhvaG8yr1cum7dd6NFiEyHmQkxs7TyaRhR4XATBHDHF0/EDy69ETfdfT2+fEERysrkAOXuLoqlyUPPt+Cq627Bq0v/g3/f8SiPauvg6spUHHFwPsomZNH2N5kTVSqKj69AgLfVsowRE7EkbNrazhcCJ0k/qEMOZ8dnzzsQM+bOx9N/+S1u/uYs7uESXT0iQL+jJkC78S246LTLMXfaAm7YNTT69o97bGJGAkYC+4AEEsVX4bNGkE4deaIVjCpZyci8kMB6zfnX4Xd/rUH1Dm5M0zNATqK+LM3bgTyC/bmXfB2/f/AF/OyeJ7kTmR83/akCf34hF1ff+CFH2JGmjALi3/rZKlz3m1343RM52BQ+HQH/AQh0+HDkCWfii1/9IRYefgJys2MfTCEj+Q2bW3HrXdW45rPfxgEzFxoQH1VPkOmMkcCISyBR7HXlixyGjvj1DKwDMmIuKS7D5Z/5Om6682Zcf1Up1S5plurksrMn4p/3/Qafu/J7yM3PR5o/DUvO/wI2b1iPU848Hz//7iXujfJlEPbk4Gv/7zco5qpUL08COuqUs/HRh+9j2uz5CHBf8ztu+jbOO20c9dzuo3GxV9+wqRX3PNKIa867DhPYx+7NfdybNFQjASMBIwGHBBS8JewZovblcI7I++b2TWllfal7MmUNq1377dqqWH6UT5yKL37qy/jp7Vuwu6GDoJmE/SZxC1u8iz/+7DrUVG9FG/cnX3z0CTj86ONwz6+uw8Vn5BGII0WRxqXUly7Jw+9u/Doaanci2N7OdlnftFmoqtyIO27+FhaU7sQ0mWSNLG7p4d94pw6//stOfOPz12MC9yw3IO566wzRSMBIwF0Cgrvq3TlIHRUj8lAowJWNIVpXcDczmdUndoe49aPsEyIjbR+XMovViVcOoWA6lvPQzG7OtP3x35/+Cv762J34n3MnWcvhl5xQhE1bqnHvjedhR20760rCnKmZuGJJLsYVZnCyM7Je2VVx3swsfDm3HffdcgG27uROh9mFaGmqx+TxXTjnmAKUTixm/ZEoLqtOX11Rj7fez8YPL7uWG3wVWtcSq+8mz0jASGDMSyASiBIQyWCAXBvUMIHmIlkExF9ddj+27liP/UrnYuZ+h1qg/e6afyHgDaNl9y4cMOMoNLXVY3rZQuTklhAQI4FTa5bOyH7fZROm4u0HGiFWK6mcU0yjdcqMKRm4qsxvWZgIn1iqpHBxkLVPuVZgC7vrSiJYp+HqC0u53Sh3taEpY5JnPLcx5bYZBHC3smKD/tyLNdhZOw2XnX0hcjO4x0ycF5CtWRM1EjASGAUS6OriTqH83XbjzaBgbo9fTXRE3ONNdzfQSXSs3LEOJ37pJhQecjieeuVPeH3tUwjSAuToi2/AorO/hIrGDchZcBCefOkOtHNP7d6ZzCh9FJHLDQi0cxFGj2amG7iTLJ15Bm3C0+llJO0GxNa+Kpz8bG/vtkiVusRMMYP7jmfx2KZMhmk0TXQrK11qY9mXVgbxX8d/zoB4lHsUi2ydr8ofkXEjJAF+/XYffsEfj6g3LRXnCPVlhJrtCoewadtS1NSupbZAtuXoAZIR6k+8ZgczIo9Xd0L58tYLco/xVx66FYed9RWededB6YIj4Ocy/HTuFlbIo9PKDjiC9ttN1Dm3cgVnIKF6e5kSfJHKSDsgwM3/m9c24d9PV3PT/y5c+a2ZnBx1n8jsbcMWETPD2t0hLJ53JM0RaSNuRuI26cSLhhHis1C7fT1auWvj+CkL4M+SM0sSvInxqjf5cSXQyd9X0+4qbtWre2ZzRMq5p5Q0bgqWnskTuPxx69gXGGTb4crqd/gO60LZxINQNn6RdarXaH0WRxTIRVhbt3/AByUJTXU78Py9N6C1qQElUxdwJ7kca4+QtGzaes85nPs/t9I2/G4+SLL1ZwKPCl8Q44vlaLX4zAK+WytacOcv1qGMR9DlU09fwk0wP0of2KhQJjS9jgVGCfR4zLOEgkGsfPpuvPv833gQeQgFZdPx6at/SxDJGPOyGQ4BdHGeatM7L+KFv9yMzmCAX5zdH+xh/j5ki4c5R56ORUuuovXW0G63PBzXNpA2PEletIeasGX7SuKIF5PGHUQwlz2R4mPKQNobTJkRVa10cmHO+i1v4sT/+RHO/vY9OOXKW5CZm4/lT/wRK564E+0tDdi5aRVef+Q2fPTms9z6Mw276yr5I4+9CLeT+ZurN+HoQwporx3/EkVFUsDDmeXIthwCeHoXl1zzc7KgsP/nasp7QxYG7eLhF9a5jIO5O2OsbCcP016z9EkEWhsRbGtBbeUGtPAwbeuc0TEmi5G4XHle25vrEGpvtYA8Z9wk5IwvtU72DbQ04sNXnmB+A7s2utUMQyE7T7IPB8w6k4e4Z3K76yDVLMupAn6zRyMw+q4/PsoNhVSi1sHPts4kPHPX97FjE0fmxGexCpn+iRNRPu8IbFm9FM11O7HwNB66wA370+iDPBEk1p4W0pTo3Tdu24i507Mt65Sozdsy0jM8uPK62ahIDoKnKKKaxzEdelQxRx/9fftyj/G0JB7EXJfQsn1bF8Z0VEaD2z96B238IhOVrJeHbIT4Ffby/T9BiCo144ZJAj0YlcKtj0+78lYs+dod+PRXfmUNokIdHWiq3c6B1OgDsqGWjsyLZWSMw4KZS3rAnCdtEcy3VC8nmI8+nfmIArkIKzebZ1kGePgsHxJRtTTUbLdAvGTGQmQXc0RQXIrsQoZFZcyrpr13Zs8scvRbJ/VsrtrMs/wSB2GrLwUpuPx7M9FQBhywpAjT52VRvZN4HdIjGZF7aAnT0NxoRpLRb1FETmdHEB+8/AgPpg1w/3Q/ph1yLIXpQfWmdejgCNG44ZeAbPQlL9HtG97hqLQLyfwizi2aRFXoiMLGsAlCrFUyMydwZH4WV4fLyLzDUrNs37mSWKVzCMPWnZgNjaiO3EO78HmzjsVHle9YViZenw8FkyZbOrgQ3/rWXiTUTYlKKsCTx2X3wmwe6yRL8mM5Ua1UcEQub1QB1kSdBeZFPlx41VQLjL1iYzgAJ6qAxpbmuF8OA6h6ny0iawa2rX+fZp1eHHLKhRg3eR42rHwRHfysrdrwFiYvOI4v1RF9XPdZ2btdWLC1GQ/ecJ71dSQjUA9/SEecdTknPGlKO4acgLk1Mp+1BG+ufshSs1RsW4HczBJkZ5USmwaGEUMtwhHthQByGs8+HF9Qbs0IZ+aX4KjzrrW2+tyy+jUse/R2vPnEHyD6OQ9HZ3NnHE4LkvgHJIiuL9DBw4b7g+KUrHwwBml3LgcGBXhYheySOBAnqoHWNtnvZd//BB2IfJxlujjS2bpmGS0lOMHGDd+nHnAMsgsmUp1Gq5+OEFa9+A8esjt0JzM52zdpFwnwt5NGqzF/bi5Vmjwjl1/Mrz9yB5obdow5c8Qwv0zag/X8PfPgbes3LZY8sh1xP0aJLiIeStKID3GsA4IbqnFQUQn14TvwzJ3XUS/3e57ynsVTV9JRPGkmfLRakB+7rPxMZIidREjO4m6Gib4su4G3k+DdicdfqLIOkxAIbuV2tbddf4BVV3+ELjr8AEeY1nCmPwXHKG8o2I43/u9OfsYHLJE9/NMvWj8YocsPZ8emNVw/0EjrFTF9Gz0/nn35dvn8GVjyjTs5As9CO1cyP/jD89HKic6XH7gZJ116C1L42xwLTsyj6xo2YPWG5zn3FuIqcz/2n3oy15SMSwiLhktGIw7kMmj2EPj+fc8PaKXSxMmuRsuGePN7r6By9ZvIH1eGtubdWL/8WZRl8gT4OD9kS63Bmfe50/kioDVKIq6lLYSrfvA2twXowuXnTcGZJ0y0zgK96c41qK0NWCcE9XNwjyBfPGY8noj0+QVEAG9tqLVA3MdJTrlr8jUlcWvtAM0St3HEPmPRaUa9kohIh4pHRjj8TQiYWQNR/mmqk/s0Np5sBfFVHz3LL/VWrgL3Y0bZUVxdPoWmmYmvLRmq2xGrnhEHcumc2Gju3lmF9jbqlfng/OPnV1gTXCWzDsQ7LzyClc89yAcqjAOPP4yj7NgC7KD1w8oP38QRC/MTMj2U9gXwp5ZlcvOrDCycl8/DkD38ou/CkuMmopiHTvQXxKXODL/7QbySZ9zHEpBP9jVLH0MHwTzV78enrvkt8nj0nQB5gM/DAz+6AEGOxt97/q+YctBx8HnkIA7j9pgEesY+lo78++dao05RKbRxw7hUfhHNOPg4bm2x759yJNdcW7cOqzf+27KUk5H4rMnHojB/VrdmYI/dgIFVPKI6cumyvN1bAs341NW/xMQpc5DGT7lPffmXKCqdiqM++02UzjmQ+vMUgj1tvHMmxB2Rd3Z2YnXFhxjHScsEB+ScwOBIo7UDpx493gJx6ZeAe/mEDLzyZj0amji67scgRCb1xxdwMVKiHZAGx6gTNVSYy6FT/OnIo91yfslUpGXmWgvC0nMKMf+Yz/CZ4OIwLsSI9zU2RkU4ZJedxN9Y7vj9+ELN4v3w035c7g5tgvlSzcnNw4HHnoV5x5wLzxg4EEXWuHy48YVeEJ879ZQeEB+dL7GRH5ETIQXMW7mA5hNnXIrlj/8R6TkFOPai7yMrfyIO/69vINBcjxWP34maXRvhL+WPWixZojg5o7KGn39dXbK0O/Z7SvZUkV0K125sxqbtXDnasxpT6LvqA7jlro9w2P4n4ls3P4fvXjadBzanIpVb28Zzspp0XGFawi+SePXty/kerw8Ljv88pi08iTrwdAtE9Hol75BTL8GcxZ9Camb2mNHL6vUPdygrOcdPPxjnfv9+dFq20t09EGuhlFQePM6DjcW+f6w4UZ+kckHQ9LIjkEd1ijVHN0ovPjoiDkuHw9zju4kthfH6P39v6UoPPulCvPiXG1G/sxKf+eadWPnkH7Hh3VdllQ/mFR1I3jh6b74UQqHY1iby4pBzNzdVtuGBJ6rgTRrPCc3uVZxyms+qdQ0E8bVWW8+veJY68gL86j7q3WeEqT8v5JeBzxqxRxORjMTH5fv4Nm+j3TuXlw9ENxOt8n2MLioUAYdsHrhhOZusuvP8Vl43Oc6938dkM+yXQyF7CNrpuUURTcu9GEvOw606Dj3gC7xk2R3Va2kERvP1DwWQ90Pp0FcUHXzrL3v3Ucw64lSMmzKfo90MbF7zBjdLmospBxxJfbgX0xedYi0MSuPn3psvPIrx42dzEiz6xj3yIM7abzqqamowlUvu7XutWGoc7ky4c2cQv71/C0qL5+L8E87BLx+4BZ8+fpy1LW2Itodvr67Ddy+dhbycVKRnelFTE8QtPDB5dsnFuP6X9+GLZ4/HzKkZVMPwBrsM0OWZl0MpOmk6Z1xiEogFFLHyEqvdcPVHAkbe3cNFr2dEvj4GhKcuMJTwLR9Qg31r54ictsObVi23bMdzqR9dt+Lf2M19Usr3PxKvPvwznrVZhm3r3sbKZ/+XOyDGX+Hno/7u1MM/hbse3sHJig5rK1rZH7yFI/BtVe34zs/X48EnffjuxbfgglMvxm0P3Y665mZ88hNF1t7kHcFOvLOmAZNKMqhK4UiRZowlE1Jx2EE5mEq9/Q+v+DmWvT0Rt91byQ2/WmlmSB2iw8ke6Ot4Rqf1whlbAxmHJEzSSMBIYDgk0J8R+RAAd99LklVTeVnjUbnuFWxf9xaKaDMe5IpIMUOUScuaLRuo6+5Ec201/DIBxlWx8UYLMgIv4aTZlWd9m6D9I840ezGxKA0rVjeinCPw7150I7K5o2IKJ1BXrFqG8kkdmJKcwxG0l9qbMKp2tmPh3Hzai35sdZLCFZ4LuVz/9fffwKlHLuHRcJegsqoCt913OxYdkIwTjyzsNVGUl0bF5jauRC2izp0nWsRTBfUViUkZCRgJGAk4JRAXe/sD5M7KB50WM6b9Zx3DfX/XsK7uoavMiM9YdDKqPnqLR721WeqVklkHYcHR5+LFP3zfmhiN17BMUpROKMcvv3YbdeENaG1vwemLi60JG58v1VK31DXxLM0H78CM/ZJw0dmcqechE2JP/tv7P8INX5lrpalKpz15J+NyFqgfd/3tNZyw+DSaFmZgavlsfP/Sn+C1t1/EDb96DKcfl2+B+XtrmlBVnYsvnX0VXw7RVUDxrsHkGwkYCRgJUAIC4k4fIZiBAnncN0RESy4EMScTu/BOmjjlTyhjb8PIyC2wVnK+8uCtBPIg913x4bAzv2LtV95hTWIm1rS14Q2XFmdwM3ypN9m2zDNIm+Xn33iOm2p1cHOrMPLyfNYLonZ3O4rzU61j4aS7rTRJ/MU96/HNS2byPcMDI+p3kq9bldK970sOgf1UWrYcgYqq9fyK6MLJh4xDQf541p0e9+vBRSR7kJSY3PZgB0zVIgEZHRhnJBApgUE9GE4gl8piaXUH1Ziz77LP78oPnsLC0y9GQelsbP7gZZx82U182Ltw/MXXWw99W9NuLuyh6RMnPtuCLejoaLGWySZqCSKqGLv9sWwJUM2tON9Z/xwWzsnE/NncS4LHuAW5t8q/XtuJk44cb6lVpK88nRMVW5stlYtMYGZai3w+Fo/EREWTw5fP/Oxc6zcqJlz2CVbnNQ9/mtMgVBnJKjWPpeoZ/h7s8y1yL44wVYCxXfd0lOyal4wRmUSL3b19IpfPOVdU7wPOjrP2uPPSevMUyIXwMUI52WOneyuLzRaZK1Yk8gP44JVHeTLQPWhprEP+xCcxef9DkclRbTI3pmlr43awXP3X3FiDrkCAYER1haDqAF2Ao/GHn30Qn18yHj+/ey0+dyY37OJWtU3NIfzr9R3YXtOOSTxkIivLJ/hHoPZYghGTwqml3EJXFkgQ4u3ikt544qw4HWB3h6AYN0Dgalnr6K7RuZZhCK5xJKuQdRBdfNkH5aMtqqORJZ+aELdrbgeN4sk38Gc4aiMmo1u+e+9Xjz5BGiZ6R8MK5AkXcDD2t8E+xUWXXZxfjg+X02olhSffzzkYG99ZyjMbN1rLgK2RNJ93LxcihHh6TGYq9wcfJGDKgqHttTVY9n4bzjpponUIs0xQvrysBlecOwWTJ2Xg9vsrOPrvxIWfLuOCgCRrRC6Tn/NmZHF73A2cQJ3P/sXeKqDPhY5gIhxKJogHueVBE/f5ziJ+DMZQaQQvZLQ2zV9AF1WAIc7DdIX4sIbpXTBa7gOSaaXFfYNSMgpGmdpttAq3n/3ibzvYygNdZPvSvctphzXU3jvTSo8I+wvkWoE2oKHS+xWKuqS89ECUVL4FT34OFp95Fao3fsg9Vc7B9ENO5ii91lIH+LMLsHvbR3jx7h+x/kE1aak9cjJzuEq0AUuOn2CZHDY1d1BnvgM//uo8ZNFu/NrLZ6GhIYBH/rWdy/NDWL22kfum52DWlEy8sfJ9rvSas1cAuaiGQu28xamtCNZt50CwkC9M81nfr4c0DrNscRps2Y0g50/amoIIZ0c+n3IfugIpCHva0barAv48ngjLNROuiB+nPZMdRQIchXfyzAKRb6CNWx5zzOL2Qo1SeqTJkQ9Nd4/c6EKLoMcanimzhnqxmnaGmh89tEpoMVibtL+7+jk0BZtQUDKdJoZ5mHbQJ/HuC39H466tWPrIr3lqzN+4sKbdOpQ31qdr9Eb75og6J8jR/cX/tR9BO8XaZ2Udl+iXT0znIQbcfjYQtnTm48f5cck5k/Gza+dj+8423P/YZmRmefBhxVrukhhPH9q3zZFKyRdNhjcPHW1UTe1Yh7bazT2fnpG27yPVx722XUstGEIHQbyp8gO01e/mAy07N0YOx4WW5RtHoElGa81mNFevRRfne2QuyLjBSqBbPRuidVrD5rfRwlPEOtr4FfoxzAy2geEuP6CexxqRS4XypAnYaygXJXT1kk7MsYR8gloS7nnWu6i73d24HZ8875s8GWi6tQf5guO52x0X/ix/4i5OeP4QHp4a9P5/HsaurRswMX8/fpLGevck0BXq130+jo7kM4wqlfqGIG69dz3OPbUUP7l9NTe7SrPixQWyr4oXxYXJOO34ifzNydL/MPdk2cqJw73jB2gBiD8Pjbtr0Z5cj/quZdy3pgZpeaWUdTaSuJdJ926SkeCTgCTHJItltURVVTDAiXcestCycz3aa3ci1JyMguwS1+dTJtwzeYBKa1MRQq270FDxNl8AdfDzQJWUzHyeRsUNwazTj8x9SPihkhcp70OI28t28Mu9dccGtO6qRGcbkJ8+iV/eo031ScyIPRGroCLYKk7T3ak4f2MBubOoVOxE0YQBnWLnhGIdCmg9IUvv5btHHvB06r2f+cP3UDZ/EY74zDV4+o5vcdKzlqfEcIm+TDRSJz6fO66VzzscL9/1QwuAnR3rTzqN+3pcTCuZm+74KT6xfyYXCtWinKs4jz60CMceVozqHW3429NbLZA/k6qXSSWZ8NOqxUM78+bWIHwEv73FiXxTObFWkDUJtU3buMtkLQGkAc2+D3gjeQ9676YBkMTvqTzJ/JXJaJrmsKFAB0ItPhRyr/xMf37UEXkKD0fJCRWhgYuT29qrqWpZjZbq9dZv4eNdMs196Pd9kK9jmv12hXjmb1sKclPKOe/F+8BnfzS5MEG8mcYcUT4VFLydYbRLiOBTIJcMuXINE61AK4zG30uXkcyGbRUondnGbWm79bQibC9N4nKLSzB1wTHU4ebglMtuRsPOLTy/8S2s4DFvssw9I28cD16upD6bI8hB3iAxDSzlftffv/RWgnYlDpoOrNpyl7VvSgoPTZ7Mfcm/dOE01DcG8fCTlVxqX4GzTizBTOrH73+sFld/7su0Ed97FvrIoqsMgrknqRytgUba4++kfpYPfzJP4+FL39qmtPcumUh8Cch3DgcYsgNn0Au/pxgZWTnWM50i8w9R8EN2EPT7eKpOUhHSAhlokDUJ3jbOWVCvbu5DfLG7cFj3IcyRd2cKUlCI3HRus5Hs6zZPduEfSVJnqB0bt1G16a7zURx1htplpWs6IlQgd2a4jb6FRyrUSpVHwriuk2/Ot9evw+GLarnbXS4faE4AUUXR1F5vqVZyuKdKKNCO/7v1SuSOK8WhnPgUmjQW4Eh++WO3c/ROdUC0X0rcHnzMILbeWenZSOfqzPZgA3a1+qU7lvPQFNFPi5Q0nhh+6flTqU/vwsr3duMXd1fgC6d/AzP3mzNoy5mPe7LnY3LieSqP5bJuFr9u0vmJ/7GdnN7KPd+PfauFnoeFFk2y0MxLkJaDB7xe+Tm5I7k8tzIqp8U5nx/eE4K69RLtZTf3ov/PSI/waCnE1RvWNtQ+vkxl9XbvD7r/le6BElTLttfhLeKfbDkSxSmOaqhsmo75gLgBuRTofby0Nlso+VqphmKFH9NKORTqxHPvb8E5lStQllNKnSCXyvOBzvUX4snffQPl8xdj0RlXcDVlE9p5MMRrf7sVJ1/xMwR5Ssx/7v8xR+nbUcRz8rRBW38GHJWXyzOvPYsp+3VF3HcZ+YtKJY3L8xcvLGK7qZhcUsZT3keb7i3+5SdxVO4niLTzDMwuqgMsABEdY/yihsNFAvrSl+eX+j9L3SYrkGP/bARbeKAxrVU6gjyBKpk/GT5/chfcB2kuDRtSHwlYIMU/Mm8mKlgfv+5lz/SIH3OfUsOfEF1+7da38fzqShpXRAC5nCquYK2hdFLimpafqnrJi3BuQB7BRIJUaAd3rVRDKn9Q7FZQaWIRsnLTLvzzlZdwackCpOfPsFZrzpq6GKvWv4Z2jrrFoiSFN+Kws77Ek7t5kABHLV6qUxaeeLF1g/5z9/+jVUkTVSxDc7Nkocyu+lrM49Fu0Ub68qNN4cgrP8eDZwn6Zxx9Fkdfe4+eXOUv8xJpabIQhbdM7ppxg5dAzy8i2rPj1oB8IckBGpxu784298JNTP2jDeA+9K+BQXBz9Xpb3Uf4x0v/xusf7eBur4rNvXXW98TsGfZ4LyMj9qfFHpcZr14nGXawlgytUKbFJF/SwiNxu9/AdEwgF5BupH3n71/4ELMm3I+jPnkufDmTsbnqfSSnpqKwdJZVZQdXbz7/55t4UkwGPvu9+6yJz6c5GdrB0aSPI0uvpYd0dpNFB+Bkwmo3D/3NzBCdZ/QK5MS2LPJUcRfGvcVixe1qui+Rf2Ncq1s5QxtaCfTeB6nW3IuhFe5oqU0mw7nat61uDV566SH8+vnVaGwNuPVOsFNxVjHWjU9pwhPh7ECumcIY6/GyA7g2vIxlFmsF0ULZJnZTTQO+9tBSXMtzMM846iQkhVo4Mk+2tqmteP8ly7acampLX77pvVdosdPBY6c6+MbxYNbUT1iTo9Hq7y9dJh528Yi57ExZaRe9tORl8pCKXbQVtszPorOaHCMBI4ExKwHCoejJuEisK7AbjdWr8NhLT+GmJ9/E5prGaBOdy3vEJWAueCpOcVVpStc8i6nnj5XnBuTKJJX0GqgxrpXZQ+ERCHya/hr6uE4OOl5fVYfr/74UL63dikuPPQDNBMhXHv61teoyk6qVT5/4Vbyz6hm89vffWPagRyw4BVOmLKJKg2cGSo+6XN9scdt2MoQ7udKurYGTJIXOLEeaZpJpybRk4X4vnWy7a+/TkzsuyCSNBIwEhkoCAt50YWJDqG032hu3YP2G9/Cbp1/Fv1dVorq+lYsIBSpdnWCnZkpFEleMlQISVy9pdXaeqKoVYdIxqjZiQSjpGkq+NrCK8dfoD6eP6aSAgPnWumY8/MY6vLxmOxaW5+OE/SeirCADc0u4Am7b05iREUBLOmegaQlQFNqI9o1b0N7bpZhNJJzZGpSd6GjYq1capaSMyJNpmhikHXbd2r8gwAVFxhkJGAkYCXSPwGXCmttcN7Xj3c078ejbm7B84w5U1TWhjcc9dsnue+5OMFOwUzDWCeDOEvZK7HGLzzkiF4Y4sNZbv/CKlw5ImZ/QP9kTZxDbyYW3cjHFpp312Lq7EU++v5WjbwKmTcfRST2TTCTZabFr7V+u7Gx4xuKJqOMeGYGO2KPsVh460citAg767v1uExb9a9hwGwkYCexzEpCBucyhyeg7SCu9GAAu1y7YeSO9DpQVSxXUFdiFrs4eV5oVCgDbgdueVrWKhOI1T9MaCgJKXMIf019Mv1c4yxyMKzZlyX48JzcpyLdre8AcqBxPVibfSMBIIK4E7iPHd+jtwB0tLgAuXvLFaVpCyyk4u6U1T0BanAK3PRQeBXEJxS7vAfq4E5/kMc5IwEjASGAsSuB1XvT59DLZJ+AsxuVOEFfgtocK3HZAZ9HuUbSAsdMpiEsohTUdjU/p0sC/6A+kL1WiCY0EjASMBIwELAkIiP8PfTO9grdgrHpGe+N2mtDFCS3CiTrECeR20NY8CaUCe15EZT0Eecs8Ss91+FhAr3UwapyRgJGAkcCYlIDg55/pv0xvB3EnmEvaDuAal9Du7GnZcSYCaJ1g7QRxqUB5FKQ11IakM/+hf4F+Mr0ZnVMIxhkJGAmMSQmIdcoV9H+ll0k2BW87aNvjgrHqGe11bjQrUwFYQy0haaWJ7lucPdR8oYmXtD20xyVvHv0p9Ivop9LLaD3+DCOZjDMSMBIwEtiLJCD7TsmWJbJiUxb7PEUvJoYCwgrWCuRKs9OVpqCtIYv3AXehq5MDBi2noWZIWmn2uAC0OAmdceXTPHvaHtfy9tAZl7SUMc5IwEjASGA0SaAPgPZ0TGkCyOIUfBWgJa3xeKGW1dBZp9YvoTjh6wVLN9BU8FU+5XECuOQreMeLa749tLcjdGdaaMYZCRgJGAmMFgkoyGp/7GmNa6jA7Uzb6fa48jlDaUto4jTsjeuCIMlQoJZMp7Pna1zfFALiGneWk7TkKfjb0056IgAeq49St3FGAkYCRgJDKQE7aDrr1TwNFQcl7eYl30l3o9l5tE2hidOwO9XzV4G8D7EnoQUUPBV4hW6nCbukJV9DoTmdlrfTtYzWp3ma1lDpJjQSMBIwEhgpCSgmaqj9kLTSNK6h8AjOiZNQ6YmEUkb5NC6hOsmznBMonWlhEprSo8V1xB0vlPqUxxm31y15xhkJGAkYCYxmCSiQ2kNnXNJKswO6XJfmKV3Tyh8tVJlofi9Aa4YCtqY1tIOsPS75Cswa2vOVpqGdX+u25ynN3g97XPNNaCRgJGAkMJwS6AVNNmqPax+EpvRocTfAdpaxp6VuZ9rensYjgFwy3IBTaRoKnx2A3eLCq/zR4lKPOHv5bkrkX60rMsdQjASMBIwE9owEFEhj1a4ArTxSRstFi2sZZ77UYS9rT0tcnfJYaTdwdKMJs9I1VJo9bQfkaHEpZ8+TtDg3WneO+WskYCRgJDA6JWAHYu2hk6agLfn2uJ1PgTlaqHVLqDy9NDsI9xIZiUYXHsmz5zvTwmMHZWe+My386uzllGZCIwEjASOB0SgBOxDb++ekx0orKGso9WhcQ2fd9rQVtwOyMzNenjPfDaDdgNmNJm1Hozv7ZdJGAkYCRgKjQQICtG5gK32zj7wlrXzRQjuPMy5pdVpe01boBOM+mUzEytc8DbWspjVUejygjpev9ZjQSMBIwEhgNEhAQNUVWHs655av/BoKa7R4TzW9gZ2vlygRJ9j2yexJxOPRfA3tdShNQ3uexA14OyVi0kYCRgJ7owQUZDW0X4OdlkjcXlbi9jLOPCsdDWCdzInwKY+GseqIxuMsY9JGAkYCRgJ7kwScoOtMy7XYafa423XGy7fK9BdQE+W389njbh0dbL5bnYZmJGAkYCQwlBKIB6j9yY/Hq/1OlC8h1YpWag/jga+dV+J2fnvcyWfSRgJGAkYCe7sE3ADYjRbtOvvDa9UxWFAdrvKDbSeawAzdSMBIwEgglgT6A6r94XW2OZiyfUbKzor7mzZg21+JGX4jASOBsSyBQYG3XXD/H/UYfotaULBcAAAAAElFTkSuQmCC;" vertex="1" parent="WIyWlLk6GJQsqaUBKTNV-1">
          <mxGeometry x="590" y="228.5" width="370" height="103" as="geometry" />
        </mxCell>
        <mxCell id="ntf6u-JNqa4Ea9aM1wRL-22" value="" style="edgeStyle=orthogonalEdgeStyle;rounded=0;orthogonalLoop=1;jettySize=auto;html=1;" edge="1" parent="WIyWlLk6GJQsqaUBKTNV-1" source="ntf6u-JNqa4Ea9aM1wRL-18" target="ntf6u-JNqa4Ea9aM1wRL-21">
          <mxGeometry relative="1" as="geometry" />
        </mxCell>
        <mxCell id="ntf6u-JNqa4Ea9aM1wRL-18" value="IP播放正确动画" style="whiteSpace=wrap;html=1;rounded=1;" vertex="1" parent="WIyWlLk6GJQsqaUBKTNV-1">
          <mxGeometry x="260" y="550" width="120" height="60" as="geometry" />
        </mxCell>
        <mxCell id="ntf6u-JNqa4Ea9aM1wRL-24" value="" style="edgeStyle=orthogonalEdgeStyle;rounded=0;orthogonalLoop=1;jettySize=auto;html=1;" edge="1" parent="WIyWlLk6GJQsqaUBKTNV-1" source="ntf6u-JNqa4Ea9aM1wRL-21" target="ntf6u-JNqa4Ea9aM1wRL-23">
          <mxGeometry relative="1" as="geometry" />
        </mxCell>
        <mxCell id="ntf6u-JNqa4Ea9aM1wRL-26" style="edgeStyle=orthogonalEdgeStyle;rounded=0;orthogonalLoop=1;jettySize=auto;html=1;" edge="1" parent="WIyWlLk6GJQsqaUBKTNV-1" source="ntf6u-JNqa4Ea9aM1wRL-21" target="ntf6u-JNqa4Ea9aM1wRL-25">
          <mxGeometry relative="1" as="geometry" />
        </mxCell>
        <mxCell id="ntf6u-JNqa4Ea9aM1wRL-21" value="选项显示正确" style="whiteSpace=wrap;html=1;rounded=1;" vertex="1" parent="WIyWlLk6GJQsqaUBKTNV-1">
          <mxGeometry x="260" y="660" width="120" height="60" as="geometry" />
        </mxCell>
        <mxCell id="ntf6u-JNqa4Ea9aM1wRL-27" style="edgeStyle=orthogonalEdgeStyle;rounded=0;orthogonalLoop=1;jettySize=auto;html=1;entryX=0;entryY=0.5;entryDx=0;entryDy=0;" edge="1" parent="WIyWlLk6GJQsqaUBKTNV-1" source="ntf6u-JNqa4Ea9aM1wRL-23" target="ntf6u-JNqa4Ea9aM1wRL-25">
          <mxGeometry relative="1" as="geometry" />
        </mxCell>
        <mxCell id="ntf6u-JNqa4Ea9aM1wRL-34" value="" style="edgeStyle=orthogonalEdgeStyle;rounded=0;orthogonalLoop=1;jettySize=auto;html=1;" edge="1" parent="WIyWlLk6GJQsqaUBKTNV-1" source="ntf6u-JNqa4Ea9aM1wRL-23" target="ntf6u-JNqa4Ea9aM1wRL-33">
          <mxGeometry relative="1" as="geometry" />
        </mxCell>
        <mxCell id="ntf6u-JNqa4Ea9aM1wRL-23" value="1秒之后模板下移消失" style="whiteSpace=wrap;html=1;rounded=1;" vertex="1" parent="WIyWlLk6GJQsqaUBKTNV-1">
          <mxGeometry x="260" y="760" width="120" height="60" as="geometry" />
        </mxCell>
        <mxCell id="ntf6u-JNqa4Ea9aM1wRL-25" value="" style="shape=image;verticalLabelPosition=bottom;labelBackgroundColor=default;verticalAlign=top;aspect=fixed;imageAspect=0;image=data:image/png,iVBORw0KGgoAAAANSUhEUgAAAYkAAAB7CAYAAACB8HwbAAABYmlDQ1BJQ0MgUHJvZmlsZQAAKJF1kL1Lw2AQxp9qpWiDtOLQQaWCIkKVmlbBsdZP6FAaxY8tTT9STOtLEhEHwcE/QFCcnNX/IIuDg+5CQcHJRRwchThoifc2alvFeznux8M99x4HtAkyY5oXQLli6pmFmfDa+kbY9wwB/ejEAIZlxWCJdDpFLfiurWHfwcNrdYzPOvWfBzerxtNL95A6GHib+tvfEl25vKFQ/aCMK0w3AU+UOL1jMs77xL06LUV8zLno8gXnrMuX9Z7lTJL4ljigqHKO+JE4km3Si01c1raVrx349kK+siJRDVH2YRZzSNELQ4KIGCYwjUVI/3jidU8SW2DYhY4SilBhkjtBCoOGPPESKlAwjgixiCify2/9+4YNTb0BJq/pq1BDKxwBlg0EDxrayB7QMw9cHTJZl38u67G9RiEmuuy3gI4Tx3ldBXyjQO3ecd4tx6mdAe0P5LU/AcXqY4GSHTNwAAAAOGVYSWZNTQAqAAAACAABh2kABAAAAAEAAAAaAAAAAAACoAIABAAAAAEAAAGJoAMABAAAAAEAAAB7AAAAANpGdT0AADjRSURBVHgB7X0HgF1Hee63e/e27V0raYt6ly0XbAvZptgYF4xtbGxTgnkQCB1MDZCAeS8hCS+PFhxCSAgEsCH0GIxxbOOKQS5ykSxbvWu1u9rebt33/Wf3X82ePXfvvdu0ZUaanZl/6vnOuf8/9Z8cTJ7JmbyibEkWAYuARcAiMAEEBiaQd0TWiTL26co/0XpGPLQNWAQsAhaBGYBANow8m7TuR5tIXoyX+Wabz0xv+t0PY8MWAYuARcAikBoBL4bvRUtVQjZpnTKyZdiZpjfTmX6vhk803qtMS7MIWAQsArMFgXSMO5v4dGkVk0zTZTySSMfIpWJNo642Rl2Tbvo13roWAYuARcAikBoBN2N3hyWnSTP9XqWmi3fyZMKs06XReHXNxihNXTNO/Llugg1bBCwCFgGLwAgElJmra0aatEz8Zl7xm3nccU44FfPWxGPFa5y67jxuejqBkC5ey7euRcAiYBGY6wgI8x6LgXvFa3p1BaNUfjd+ZroRcW5Gbkami3PHS9hN82L8XjSpNxXdbJP1WwQsAhaB+YCAMO1UjDvpAkDTpXIluca5/WZRZpphupupa0QqusS7hYE7LGlMhu+Od4clvRozn9KsaxGwCFgE5hsCwrC9mLabPlZY86srGKpfXRNXL9qonr9kECbuZZSurqRxM3yTyafySz4zTsJivGiDMfavRcAiYBGYfwgI03YzbjfNHFWYfjOdlpHKNZHVNMM0k+ErcSyaGWcydS+/KUBS+bVOM7/S3K5ZtzvOhi0CFgGLwGxDYBRD9ngAk/FLtOTRfKn8mscdr/m9XKGp0fKdsJvxusOaaSwmrwxeXTOt0tSV8ky/V1hoZjtMv8RZYxGwCFgE5hICJlM2/fqMbmavaUy6WzCYceo380nZ7rBZn/pHMGMhejFkk+mn8ivjT+dKHZrG7TfLljhrLAIWAYvAfEXAzcCV0Qse6ldXaCok1NU4d1joYlK5g7Gn4pGnFLrpBIQk1TRuRq8MXl2NT+dqmVquhMVoWN1Bqv1rEbAIWATmJgJupq1PqcxewupXV2gqBDReeK6WJTR3WNMJbzXTCd3TmELCnUAKMZm0Mnw3Temma/qlXAkrTcOmK353fUJzG7Nud5wNWwQsAhaB2YTAWExa49RVYSBh0wpP1DQmXfyaxwsTiVd+qn5x1QyXq0JCE2sCt2vGq99k/Jn6pVwVFupKeVqmxLvDQrPGImARsAjMBwSEUZvMWsPCL9WvrggB9Qvf1LAKB8mjfnpHGckrRvKKX12hDRsVEsOEIY/JqE2/MnZx3X5Np3Fm2PRLFWbeoSqHaRqWPNZYBCwCFoH5goAybXle9aurzF7CYiUsPFL9ms50JY3wWs1L7wgjabWMERFmIJWQMNMoszYZu0kTuoRN1/RL3AbaK2jPp11OW0rrp7XGImARsAhYBDJDIMZkbbR7abfS3k27g1Z4rAoNFQgqLNyCQunMMiwglJ+7hYbQB+SPJpBMYkya6RfGL1aM+t3CwKSL/0zaz9K+nNYai4BFwCJgEZhcBB5jcV+kfZZWBIJphelrWP2mK363JWl4FOP4TSEgBDEmTRi9GNMVv6YRv5cNkH4b7S20ktaaFAj4cnL5FgeQl+tDKBBETk4Okskk+qL9SNC1xiJgEbAIpEFAGP1/0t5GG6FVwaCuxLv9ShNXrBj1a9ihKbN3Ugz9UZq6QlZBoDQNe7llTP9tWjt6EORSmFwKg4JwASqLStHR04WNi5bjc6+6BYvrFuPA7gP4yO++gV0nDiE5YAVFCggt2SJgERiJwOMMvou2lVaFgukK83eHTcGgfiYbFhzDIwIhilEhYPpFEIjxEgiSXui+IVdGEHfSbqa1JgUCIiCqisrx3Rs+jXUb16Jx/1EEcvOw+ox1yAvkIRaN4qEHHsGNP7kN3ZG+FKVYskXAImARGIWACIo30+qIIkG/KRjEr8LCdMUvRuLFaHjEYbrBqFN/RQCoEUFghpWuQkLd2xgx5wWETAnl5ebA55OpoQH29uFMDQ0Mw6rweLv5wTD+/epP4OItL0cgGEBNRRXFbC5yfZS1iSTLzUNxqBAFwXz0RPr5tjIs2Ls6S7UIWATmDwLCf2+j/Qyt8mV6RxgRBBInjEVcMcpklD5I5V8ZAWgiIYrftDqKEJrXSEJpUo4sUn9pKD+duWlEQBSG8nDGskpcsK4SNaUFKC0MorMvhmhMhHZ6E8wL4B3nXoW6JXUUDLnI4ejBv24RcheXYaCtB4gPIBgMYnPZCtx74Cn0UlBYYxGwCFgEMkRAePEDtCeG0osAcNuhKMdRAWHShuWCW0iYQkGFhWRUv+maAkL8X6etl8Rz1aiAuO7CevzTpzfhTVfX442X1+KV51bipd09OH6yFzGOBNKZQJ4fV6/ZggYKCV9eHnKripCzsASgsMitLAKaOhEuCKO2tharfQvwm92Ps9x4umJtvEXAImAREASETy+h/RltOoakwkPyeAkLZ3TAOMdIIjWmX4WB0MRvuuIXu552C+2cNn5OL529ogpf+sRGLG0oRGE+p4UK/Vi7sgRfpdDYuKwckiadkV1LDx9+Fq1NbRiQhWl9Ncw67OWIxZfnQ1Eg5Ox4SlemjbcIWAQsAgYCwo+FL5v824ge4TWZlul3EkkBqYw7TjObrgoNOSg3p42MIoryg7jq4hqUlshW1VOP6+P6RO3CMDZvrECYU1HpjGx3vWzpOaioLqeE5bpGK6eYuvow0BtFcsdxJONJJBIJdPb34lvP34NYPJauSBtvEbAIWATcCAhfVj4uHEv5taYTmlqliWtwN3guXI9IYOYc8muh6krFcpJ6ThtZqF69uBi3vL4ewYDifuqRRTh85JaVePrFDjy+s5HrE2OM8ohceUWFM1JwSognEH+h0XkzSU5X9ff246XndqKxtQm/37UVESskTgFtfRYBi0CmCJw3lFAY1vAkBf3KwIRJCR8349RP8mCc2e2VxG4jhWmBEi9+cd12OWlz1sgooiAcwMvPrERRsezyHW1kZFFdEcLVFy/E9oNtONmReuvqALdBHT9+HCtWLYc/MKidJI/y2nk7jJNzE9f/6K/R1tWBbo4mrLEIWAQsAuNAQPiy8GwVBupPVZTwdVNIOOnMhWtJIMYtACQshZsCQsPqfpLxUta0GmcKiAfS5KSyn9tGY/GpWdzN4w6kVYtLcNv71mFhdTjlGoGP6ZbX5eOP29pxtKWHu1lH4e3gI4vQv9v/JKpj+eht7MCRQ0dQU7MAubm5SHCH1M6XXsK/Pf4rKyCm9WuylVkE5hwC0gP9p6GnEkGhDEn9ElY7lMwJjxAW5khCE6mw0LDbVSEidE072B12p5zicGEoH795z5dRXlaCZ5/fgVvvvR3NnbIYrFhMvAHygP68HCxfXIiG2kIycn3k0WXLaKKsNIh3XNuAlw534HBzF9syOp2072R3Bz56z+2OwCkI8NxE9BOoq69D28lWfOPxXyIWs+sQo5GzFIuARSALBGTaQzryIhTUleziF6MjDGVqHtzKe01CMmsh4jeNFKYFahp1zXRT7pdTy0X5BVi9ZiXKikuxpLYeDXX1uPybH0Z33+RN0eRQKFSXFeBt1zQgP5R+sBTw5+K1Fy7AnXeXOVNOPRHv0Y0Iip6h09Ti3vSTLzgjCaHLiMiuQ0z5J2QrsAjMFwSER7sFhTy70OVwl/B0TwFB+rAwUMavrsR5GY13u15pp5RWSAFx/6e/5QiIvA2L4efJ5YFunkRP+ajja46fU0CrFhXhIp6FyOOIIhNTVBjAx96+ErULiscceWhZKjC6+nqcKaZIPKpR1rUIWAQsAhNBQJmW29Uyla7hUW42owCvtFJB2kpG1ToJhAHuAjrw3G5EeyNI7DjqTM9UrloM6flPlpHRSnlJCG+6og4FPBORqRFhsmltGTY0FCM/kH70kWm5Np1FwCJgEcgSAWWIbjdVMaPSjcX5JLEIBnW1UAmrVdq0ubJYLdtREwMxvO+eL+POwjDWn7MRP//97/B3D97BOKCEp5Unw8j5h7W1pXj9JYsg00jZmMKCPHzhg+uw7zM92N/YM6nrJNm0w6a1CFgEZi4CMosg+1vi3MwSl/NRPGg7yZMh8vDCvHT9wQyLP61JJySkABEIptGw2zXTTLpfKsvlaeYi6jRaVlOGizhquOKM5Vi+7AjyC9px05VhXH3pWyYN4CRf3v7GE3joyHNZjSL0wWWBu2FRAV62qhy333IVli2sRh4V+ImQs8YiYBGwCIiA6O7qwc6jJ/C75/bi0V1HsKexnWuqUcSn5i6ZcTEfyeRlRfKksiJYZA7FtHsYnjIjfDXA7aX11aW4/uwVuOU1F3En0AYEC2rgCxYjxyeL+ON6fs82iyTv5lmF23/yFdx4dS6W1o1PNYb0EBpP9OG2r+3B2666BeuWrKPW1/zBpvJSQKnHJ4KDrmx/9fEktkTKVlqJtAKFcFhjEZizCFC/cyKGZKQTkd5GHDu8A//xPw/hp0/swYHmdkQ5spgEs4JlyOK07KCRAtUVmlihqRWWJFbC6h++vtQtKFIJCFMwiF8EhqSdMiEhDZOpnk311fjC9S/HlvNfh/yK5cj1Fw9W7cgG5w/D4zdyG1wiGeeLiXN9I4JHnr4fR08+gFuuX0RVG/Ko4zPsLKCjK4bHtrbjud1d2Hu4hye2fYhE/Ojr7+O5iqUoCBVgcdVC1NfUI8SR0pqGtejlIbrCglLkUhlgiPqbZH3EGouARWCuIUAGIUyCOtwG4t3oad2LRx7/b9z2i8fxzIFm8iPh4xMyK5lbBIMKBRUSpsDISEgIoxcjnEhsNkJCOOhu2ikxeexhr6ktx/f//BKse9nNCBTWs3WUTRNgmiIik0MCIUGhIMO+1vYTeHbXM3j4mcd40rkJl19UgSteUUlGPTlHQGKxAWcImUywdrbd+S74J8njEHlBH9rbomhui3FucgAv7OlCd28CL+3rRmG4Bu+5/n3cKVXPRXl9TVMCtS3UImAROK0IkDdwbSLWdQgvPHkn/uzfHsDOIyfJN4RjjduokFChoMJCwyogxJWKxJr+EUJBWqFcKJWQ0JGDjigkPGVCQqZbyrkw/eWbzsdN130YwdJ6MlipLrtetSwGxSkM4hQMMmKgSj28tH87Htr2KHbs3ck1hzjO3VCKLWdXYEEVhUJO0hm9ZLtYLQCO14jQkAuMxIigkFclasebmqP4xveb8Ffv+BuUl1Y6Ama8ddh8FgGLwCxAIJlApPMg7vzZV/GJH/8RLd0Tuk/GLSREAOhowhQYpmAQvxjHFSY/HpMdlx5PDcwT4FalC1fX4LItlyJQvJgMMrvmJgh2D88enGw7ToHwCJ7fvR2NLY3cnlqMzWeW423XUaVHmFNXfBrZtprH+gY76yorx9nwcWSTgZHcdCdG3SBldqjWx4N8FXjkmQdx5YXXwO/31h01jirTZhGRJYI1npPAQI7cjzcoxERGD/nSljHvExCowbc65Cb5nQ34uAuPd4dkMRoWvB218s5bUPTVnfcoZwHA0NvgTLt0QnNzpv+3nraxXJsMFC3Ga85/JS54eh/uff7IRNcn9BNMW7VXguy4rlcJU0iTRd1Xr2lA2YINnGrJbtpHBMTTLzyJ23/6DVx3SSUuPr8I119ZwQ+jgruMcoeEwoSwm8InP1V0HgXH8mUF+K97nsRrNl81bUJC8GvtbsPWlufxTMlLOFbWho6cCKIUGDGOtCx7OvWOxvTxE/NRMAQ54C5I8P6RIyGcFVmJLRXnoLZkAVW+pBf6MvrtjbCz03WUa3E9iCb7kExEOPKUjqB9E2Pib0TKdC23h7AT5kd/n49nmBZgYXkd9b75HYFhJD3tXtmMU1G7CZeuX4IHXjg+USGR6nmEAZpW0o36oLIREtPOUWW3z1mrViEvXMpHybx6ecpO6kb64W+/hS99fBlKywLsuekoQXCYPUamoRKcdurunb6zFrL992DrUfyk7V48v+QIcgpDKA9VoDYvjABHczOy9zWDX6ngKUK3j8y9jdu1f9a5FU/tewk3dr8GZy9aj6A/mLL1Ce5+aeZ62UCwEckw7x2hIku/7H6D7JLL/DeRsoL5FiE/KNpwMM7f1SHsOHIMSyvWobigzNlhOHPgyIE/XIazV61mu7ayWVOmyy3tR5SNkHDjl7Zwd4ZswzIcb1jEe6DzQllljcaiuOvhX+DDb69DVaVcEDTlTc2qfdkkjkSTeGRrG2667I2Ottts8o4nrUwptfd1OAJi27LDqKtswObyC7AkfxmK8ooQzA1QSMhnM3sxHQ8uE8mTGODoayCKnngvGiPH8EzHNmwLPI3/OnQfco/m4tz6jUPbn0fWIiOF5rZGxIPHwKEIiipWIVyxFP4i2fUW5rkh+x5GIpYm5Owg4uaQWC+iXc3oadrLJc6jaOndg0i0AdXlC2YUr8j1BdHAHY/ZTEumQWBc0RMRElrh1HELMvfCwlK+OJlqyrwa+XHJ2kNJQe6kvPQEF5JlUVlUf8t6gV+Odacw0msUxu4M2thpEfkUGucWWqn34JF+PPV8EB9721mejCRFM8ZNjhO7pxq345mlh1BTUYvX17weS/N57wWFA2dwnecZd+HzOOMAe/5FvhJUB6pRF6pHgHg+lngUv9++FWcm1456t7LjrqObe+X9x5ETSKK47iwULFqLvICOIDL/Pcxj2Ec/uj8MX7iIuySrEC6tRUfoaXQdfpH84gAquTHE5wje0dlOByWH02AF7BBM4o9uXB/NZAiJqcVPDphl+Wg5XIwqLSrm5T3NKC3nlq0s85sPJMLh2LFe7NjFMw4HurC0vhAXXlCJ4qLRaySS9tDhXvzi7iPOtjXZ9rqAI5m33rjE8zY7sx63XwTS3gM9uONXEXzoTZ9EET/sSfxY3NUNhzkIx6OxbUhQsL2s9FwsLVhOhsbDhMMprGc8CAh+gwuleSgPVOC8sguwp2sPmpZ3YsAnE6QjTZK93hOdR+Ev7EFxxQoUUkD4ggVMZN/ESKTGE+KiNflKXn4pShrOQbS7Ffl9J6fj55VlY9kZnQFCK3WXOMvHmdrk2f0wgtwBdM3F1+HHd59AZ+fENKqKeo2aBSFUVXCvEXdA/eGpk/jGd/agv18WDUcaGUHc8ctDXGQawOWvrsG737IUb3lj9gJiUDD1459/2Ir33nArKkqqpkVAyNMM5A6geWkXCgMFWF6wAv4cGUFYM5kI+NiJqQxUoja8GB0F/c7OMXf5MgINM0523YWrliFXRhD2TbhhmliYIPtChQhzSjXMWQcLrzecM38k4d3uManSYystqcQizqV/92d/4qnphSgrSb+LJFWhfp6Q3rSxFBvWljjTTqmmkEI8FHfru1c5PUa/Pwf9FBoxnpiMyfF6dhalUxBgWaKgMJWRaYYTzf34xg9b8PG3/iVHIgunTUBIm2RNoiMQQVFuIUr9nOqzv5xUr2pC9GBuEEX+IvTnymFOr6IGuObAcz38VAKFsisv9TfjldvSMkUgF4F8Tjfo/HCm2eZRujkpJOT9BajK4oZLb8SDT5TjX+64G39x8yIKDi66ZjF2EoYd56iAMz/OUDQYHDuz/I7DYR9/9OyNt0Twj9/ZhQOcqgpwHSPG9YVVDYW4hhplz9pQNnwWwvzWJF9TcwT/7zvH8KEbP4PFC+pY79h1mvknxc9n6OdZmxICFfBxw4BlTpMC68hCRJOxn9N4QW4plg6Ep5Qg9rKjhStBftm4YYXESAwnKURYc+TsEc8BWeONwJwVEvKTyuf915dsfi3qFtbjK9/9F7z3TTWoqaYepDR8V5h1X1+Sh/AieGZnu6N7KUwB8eotNdStlDumLqdBRt+PT/zf53HBpgp88t1rnPWI/v4Y1Wz04F9+vA9fXbkJha77KSRfW3sUX/vPY3jXtbeitqbhtKjhkJ9KjL0qWaTO4z/Lmrx/OBOlDu3YHzzSmqKwJHdFcfzJ73X0+leKLJacNQKiUJMXlmWdb/5kmLNCQl9hkL2wtcs24q2+D+If//2r+MgtC1G7iNsHU0z5CLN2pnt+sBd7DnVj3YoiKuEr4mntTvz3g8exoqEI73vzMqrIkK21Wsspt6c3jr/66g7ceHktXrW5eljNuAiF8tIQNq0v9RYQHTGq3ziOt1z2Ada3iu0T9SPWzHUEMmJOXh/aXAdmmp8vo/cwzW2aKdXNeSEhQOdxMWDlkrX4yJs+i2/e8WW848YB3okd9tzK2scF6X/89904e10JPvqOVc691nKPhew26uygHiUKj7+5fSf+9uMbPe+8FjXfG1aW4JUXnBIQ0gb5ncv2Wa8RRGdXHN++8xguv+BtWEV14tJeaywCFgGLwExAYN5wI+mZ1y5owIdu+kt85c5/4CVFcWxcw/3SgZFzT+EQb5T7yHoKkJxRt9GFqsL45HvW4NkX2kfF6cuUxev3vGV5RlteOWhBD7W9/vCXJ3DeuuuxafW5rFdeiccQRSuwrkXAImARmEYERnLIaaz4dFQlF/vUcLfQJ/7ss7jnoQC27ejknQ4jt7JKj7+Ai89eGmAlrojTRpvPEv1P3oxc0gRdgifVs8qup9893MLLlF6FC868iHXKApp3uanKsHSLgEXAIjCVCMwrISFAipKvyvIqvP/GW/Gnp6tw512NvIVONOdmblRLq+SQ0UCCh+b6OCLo7RZV5JnPbka5RfbBrb246OxLEeZuLCsgMn8H6VLKVt4k/w1rrk2XwcZbBCwCngjMOyEhKMjOnZLiMrz9mndjILYev77/BKIxR3W6J0heRFng7u+h3neuJzz5YDO+9oUX8Pefeg5tTdT9nqGcEIGVHyrhFJP3CIKHbpGIJiiEONrJsEyvts4vGrctD8TRHGnE7u5daI21cQtzdu92fuFln9YiMDYC82ZNwg2DTOoUFRTjDZfchM9989N43SWDFw2503mFZfTQwcuAvvt3u7Haz5OwPAOxJhbCHmprzWa7taiAPtp0fDQTY/nJfirIaEpi3zO7eVlVDGuu3shTt3bHk9f7OEUboCK9GLZ3bce9J+7ByWgbGvLrcfOiN6M8yANppxJan0VgShCQGy85XTGnNCXPy5GEfh3CNMK8X3r98g3UL8+JiQx767JsECqkyuxSH++i5olZHriTkUU79R6FRadThtxocP1CerkjK05S2DQ/ewK5lcVY8YYtWHHOOp6+ndevSl/ZmK6j4rz3AO44fAee7ngBe3uOYmvrNjzbSV1U8uO1ZsoQkO9fLkUaaUd+11NW+QwpWL6xA0f/gJOtL/J7mzLV3tP+tPN2JGEiHeB0TySa3Qcd5OL2LR9Yjm/97xexhqOJ/dEI3v/J1QgVZN7bFxXANVQAmIhTv5RIqKFFa1lgL19YhYG+qEOScKaCx3yu+eSXtYf22EncceROHOw9zhEFp+gorAW74rxi4pih5J5PoE3Gs/K7lTsvulqOYYCuY4i1o0CPepFC+UXUXJudqv/JaNbpKCPJac7Djc84grJhUQsP8Z7PDS6p7wo5HW0cT51zWkhIj1w4hZxzSGXkMpiXDu7CjVyjyIaPSNri8gA+9MX18DHACz4HVYKnrmpUE3jxHpbVFjoqoYsLpf6hzJQJ/sV+JBqjSPZGEeunorcB0QBqjSAgC9JyGln0SskFSOL2JXpwT/PvsLNrH9ckBneshXKCOLtkA1YV8uIW/rNm8hGQ6ZWDvFr3/h/8PdfPIo5QloGxjChE1fWGi67Gy655H/zB8ORXPsNKlO8wL4ezC7yv4sDRp/h7zkNdzbnOie4Z1tSsmjOnfjkDnOOXRV7plMepBuPkzhNo3n6c/jGmGpg2yjn/sQRJKkSFp8vIwZ/Pu6jzyfGzRNPHU98rl+Sj8aTHugTPafgWsWzecZ2/nAIixQnxVG2bq3S5wOdI30E80HwfHmt7FI39xxHh0H5n1048evKPvNoz6kzeyY91ZUE9Lq26FAV5BacE8FwF5jQ9l0wz9Xa18jfW6wiJkupalCyso2bbXER6O/DCo3ch0td5mlo3vdXmUb3HpjVvoOqeIsR5vez+I3/EoeNbOdKKTG9DJrm2OTGSIJ9HgkKhY99JdBxtw6Jz6nHwkb1oWLucDCMHhx7ci7qLl5GZe+nA4XCZQkIETNZcfoIvQ1SDLKoK4ennD/DjOo89DleBVjCMAEQ2tbbGWvDTYz/H8507EeLFPZs4UnhZ6cvw0MmH0Bppdza9yoisOliOiyq2oKFgCeXrnPjMR2AxkwI6ePaH8nHVB74MP9f5Wg69hLu+9mHeAjc4FVVQXOVsP59J7Z78tuQgv6CaVy5fi227fon+SBdHFFtZTXJWTz1l2fedfFgno8Qkt4nuvnsnwrlFWLRkCTpe7KSAWIE8Hk7z+/1YuLQO+x7ajaRsJXUZ6Ql193ew5+OKmIagMLPy0jzsPbyPC12j2zYNTZhVVci7kpHDru596Iz1oIlC4dHWJ/DDIz/Gc1yojg5NM+VzmuksCo+zeWlSOIejiFn1lLO7sclEAvEIr2nd9ywv3koiNxRCSWXtPBAQg+8thyPYgoKFOGv1G3j2qZAjiqgz9XSs8alZu3liTnSxcrjzp3JxtSMQctj7Ll/A7Y7+oW451yVk8TLRE0WcwiSQR7rBNWTBU05dyxTVdBuZrgoEcnC0+RgP4dm9/Onwl/WHhaFalPEehhZub01w3rsn3ocDcS6aDv2TNIvDC7Cl/CLeh1Fup5nSgTqJ8dHebvzoCzezRKrG5whCNuRd+Ib3cEq2ZBJrmflFyfmnAo4ozlx9HZ7Y8aPBqaejT6CkaDFtHeGZXX3z2dXaVN8HObwzXSTMnzanKIy8cxpo65ET8vOyHx+WrF+Bffe+SEExcn0il8yltibED9qQHKnqmQo630Ak2kMhdRqk1FQ8z5SWycukeBHSjYtuwKJgFTcMyNsbXMgWISEmn3c0nFd2Dpbx2lWJt2YaEWCvJ8w7mUMlpQgWsBcdjeHxn30T3e3NbMT8+r6dzme03QHf2ZBCweGbpSrf58SvaICqMJoPneAWPPbG+TLy1tWwi84RQ4ACYkU1d1nwAp1gEA3rliPazhPRhuqMAU7zlBbzis5xyAjh6wkepIvxtLa4opJD9DHF5Sa6DI3IpqoKOXyTYYZ5niyP6wvri8/AW2tvxrJwLfx832pkS3F1qAIXlG12rl1VunWnB4EA72+57uPfxs1/dQfe+Onv8Ma3fKqq6cLDP/p7xCJ909OIGVCLbIVta9+HnfvuI6uJU6NCCBuWX87RxYJZN4oQOOfEdJOMInLzBnuVzrxRFz9I7miRzstAc5fTS3d6mmQi7hGDDA2DvGrUnILK5DsTodDLaap9B7tx9EQvFlJDbBmFzZ7D3QiyLWfy3ojiQq+F8pGli2rxM1eXUsDIDgjZ5mqlxUiERocCXLDeWHKWbITFb3iyenfPfmc9Qra8nlt2FqqC1RS6FsfRyE0NxRwjJNnpkt/jANcmpPPGP+hsaxkc6U9N9TOqVNkS3NaxD9v3/JYdRrmjPIRV9a/g9clL2BF170yZUU1P2ZhZLyTkQ+w50oElG1Y600oySojvbubooZUjiVwkuRaRjFHxHj/aI7sPYNlrVw9vJ03wYz7edMS5VtQtPFIhJtNCESrmO3S4D//8o304a10xzuV1pHc9cNy5tL61PYKGRYW8NrUFH33nSmqUHRti0Sa7elkhntz5NC7c9EqWkV6wpGrbfKKHeUjpDAoKH39497c8gBP9zVjKnUwXl1/Mverjv898PmE4Wc+qs3qyJnHn57km4chn/k76+5AXzMeacy6BTzQcz3EjOsJOtu3GC3vv5XXFgwJizZJXc6ZgDSc4xuYDMxma2dtyRZU9xkBxGMkWUQkgfRoeaeG0kzP1FMtxBMSebS/CRxXfy1+9ih+rKc2ppC/WjyJRsZFBz1NGD53U9PqbB5qw90Ax8v21uPyiQg4nB3CsuR+3fWCtcyf2335rJxZUhLDvQDeWL+Wp0wDLPzUroi13XKHXVgfwp6dewuYzLuLQzgqJEQClDHC7oS9MQbEJdeF69CX7UOQrQnmgIqN3mbJYG5EVAnKyunjBUoTChYjmcipXDH+GcrCsqKQca19+Fda/+iZ24Oa+kBBVHC/uv88REDLFtH75Fdy9uIy/feE5s3dkO+uFhPD2QEkQux97AbU8F+GTwwbxBPdq86McWgz2c31iKQWEP0wGbAgDie6PRTgtxLucx3iHInx6eef14aP9+PoPj+HKC17HC4Li+P1T93KbbQEOH+vDazZXUdj4EeH6hIw0rnn1Qvzdt/fivA0VuOGKBRxu+nnPhNxXPLIiaUMHNclWlHFHlnbJnF+a/ZMegRwEc0NYEFxIviQnYvhvrBeZvkCbIksEhAEuXnkObvz8HTzISvUyYviJ5/J2Rb8/DB9VcuQFZr9qisEHG/uv/LJzObINkCesrLuIAmLprB5B6NPOeiEhD+IL8nrSK9ch3stDceS6Bx7ai3pHYORSXlA9gJ87C7hO4JYEMjw82nQULz83NIp5S7nCwGURur0zhq9+7yDKwivxF9d+AN/51e24+XWVqK6M8yBcGw5RSFxCISHrCwMUEL39SVSUh1BZmo91DdfhS/96FxYviOFNV9WQHkAwyIVqCgtpaxvvtv7+XSfwwTe+n9tz7ShCcM/WiGCQf9acHgREIBSUVrNy/mCGzfx7H6Kn6YIz3+F0V3zEZK50+uaEkJDvUgSFT3Y08Ttdftlq7P7tTsdfsbISSy+h7p4R00yDX7KPcz0NNUvw0BOP4epLK52evn7jwsC7eV/EY0+24Vf3t+PDN38UNVX1uH/rPXjvWxZheUMIG9cW4olnW/HwUy244bWLyfiZm/miPI8ho4abrlyIw4da8Ll3/R/OVTbhX3/8Xaonb8RNVy1EGQ/RRak99mvfPYItG6/l/unyUUJM22Jdi8DsQGD+CQb3e/FxmmmumTkjJJwXI1MN/O8vCGL16zcMkti7d6Z4PKYhfBwqL69bjZ8+4Mc566OorvZzfYEH77j20MT7Ir73i0asrr8YX/zgVSjJL0aE6juOnDiMyy4OcSjNrbayi2ltKQp+e4RDao4iKCAi3PFUXOBnHBy9TL99cDuuuvg6rKhfhU+9/a9xrOkgfv67u7Fj7wtYsqgBf3bFx9CwcBm1Rc6tVzHXfij2eSwC8xWBOcuZfFwszsQUUpXxR276OL72o69w8e04zlhd7EwfHWsqxIdv+jxKSyo5DcT1DQqZAa5ftHW0UgDwoiGaBKeynt/Zjus5ipB7rfsiCXzle7ux5exyZySR5xvgGYx2Tle1IL+6jjudCrCibg3ec8My6ouKc97Wx3QBZx4zk7baNBYBi4BFYLoRyIyTTnerprE+mc+uKKvCZ975OZ5ViFEf/CFsWlaA8pJqh6m71zEivPthgPqAxEQoFH79cCM+9efcNcURS5yjiINcn5BBS4JTSaGQD2++ugbf+cl/4Na3fJIXHOU7OmxCol9/7m/2mMa3aKuyCFgEpgqBeS8kBFg5UCcMXMyqJevI5GWXjNeeVeqLl/3OnFaSqaX+yOBJ63xur5XwCW6DPf+MMvyJ6xTdPTGEeTFRcXEeYsmD6I/2ISw69UWCzGAj16+eaqK5EDmDGz0rm5YNttmknZVgnNZGW3THht+LE46dY47HypY+bwEhzDOH22WLeTCPlwzx0N6ewz24+lU13PLmc9RxiHC46hU12LCqGL+875izFTbEnUzvfOMi/Ne9d3J77OzQKx8ayOOZxCTvZoiM2K8yx1/9ND4e1dPzZHKEd18ExlQ/PPjzTHItzJqpQoAigpparUmNgBUSqbEZFSPaZGsXLEZ3L3/g3Or6P4+e4Gnrcq5R5DiH6LZxfaKsLIiNK0rwh6dP8uAdLzPiVteykjzsO/4Udz3NfP01spW0iEJCDgZ1x3ucUdMoICxhwgjEBqLo5wFAf3LwZj2vAnMG5BCW3Hcih9Rsf9cLownTOAMQdzpvFt9UWFohkQqZFPQc9vzaOqLooQDo7qM6ZO5w4ndGm0QhVXAEuOupfnE+evpy8LX/2M1DeHHeVOXDW1+3CNv3PcNzGzO7VyhCoipawOtAIzgRaaR2JHvPRYpPYdxkOfjXFe9GU38T8jv4E0zBnwYSPmcaM9ZNFTP8vqyZAgRESPS2UjNDipcwBVXOtiInIiQUVXVn27Nn3V6Zqw9Qs2xFeRBP8BDdDZfVOrua5C6IfZx6et+bl3FtI48H5wpw5sp1XIcYwPETspCdgyU8V/Grh3+I6AyfcspN8krVI1Xo4a1az3U+S2bWSR5mGVTWH0vKDDxHw1HEvp69ONB5EBWNfuR4wsspzYifU5s87d+ynzMiMgqdNz+1lOhNZoSsIyYi3ehtPsCrVjnlZOH1hHciQsKzwMknzpw3J4vWZ6zYiB27uvGHZ05izYpi7mrKcRawv/PTQ1QF7HcO1AVDubxIqBGNPGvxz3fso7BIcJurnN7mKGLmPI7nq+KRRJzrX4+6/gI81boNj518BO2xDsSp8liEhaNN13kIeRBrM8VAsEvy5rz+ZD92db2Eu4/fjdzjvVjZsQi+gdE/wxxemF4cWMBreXPR33wQPcdfJEPjvSPskDhDVwd7z1doiWMhQMEgwkGuCEjwRsr2Q9vQ03oCMeJM8lw343rCbHY3jauCCaHOt5bkxSXO25sBm4JkF1RlWTX+58kufPydq1E4tKtJVH9c+coFjroNed4k293WxfMTr7oWq1fvcg7ntbZFqKNJpg8mhMiUZ5Z1l4ayerxq32r8uv45/CJ6F17s2oXzyl+GRaFFKMwronLdoFWCkeGbkNcdp/ro3kQPmqNN2N65HX9o/hPyuK61ubkOr2zYPLhjzl0ev/eCUAl6uyqd6ZD2A0+zt9uG/IolPCzKdTA/9SH5rBoXN2xjhvkykvEIdUz1IdbVgt6mvRylHUa8h7dZ5i9OuWFlzDKnNJIdgsTIS9ImuTr5PNWmLDobIZGykKmKkNZ3dbehgrtARNsk9xdNVVUZlSu1+6h59Mnne/GGy5Lo4jbXvr4Ebv/BXnzsz1c7p7WlIJmWyqeakAvPvgQ/va8Zd961HY0tcbz3hvdzfYLbYGewkTWJgmARzq86F/E9STwY3oE9C3ZgZ9tOcIqcX5T0iXmwcAY/w0xrmowTHMv1LD9/86UtuTi3ZQmurLwY1UVy94XXSILajfmtlMSr0cn9Az19J5CM7ERf4175CJ0pzJn2nLOiPfxw5R6SHCoBTXBkn+j38zrcxTwTVTbjhMQABUR3p6xHTemvTQtXd9RrdAsJSXh6ObHRRNmGue/oftSv6ucC8cxgroX5hfji+/8WX/zWp3DiZCc/Lj/+4ZMbHU2y2nQBsJCaZQsLivCuN7yXHyPvtCCDkLMYcuhuphtR61wWLsUr67egrrUWj57YhoOBNrQE+tGfE0cklxfKzPSHmCHtk29BdjBRHypKEiEsbi/Blu4NWL+Qd41QW2iImlJTmVwqfJRORU4OR6nRQnS08/bFvAgv2OKBTucdeC5mpCrO0snacpzdZOztJEQpfyXK8qs4kqOGZj8Pus4ohGRXWx/530FnZmKCTcv05+qZToVEpsJBC1F3gm0fO7vccvX07l14+QUneRCtdLCLPnaWqY/lMKG0tAgf+1+rUcL73UUzuUw7mUYWqksKRd0GuLAtp6tnl9Iv57Y+CjSuYWN11XIsSzZQJQnXI9gLlpGENdkjICM056BigKOJCu6CoyAOkDH5RPOvDD09jOQJBAuoCUCSUC26I1As/h5QjYMkmPOmSipZC1Apn1/Umad4D+MofBKycNdVXyv5325nLWsSCtQiMv2AhtON5G5aTHbucGHZZUufOs4h4b3bD+HGQ0+ivrCOKr9PP7ONcYh63+P344Jz5WCdDPtHPwen9VFdIULCI3J08hlJyeF8d5gMSqb5/Bz2yhZfkQ8y2WRN9ggIk5ePJZcbHeTW4CCFhHMRT5pvRA52hkIFiEV9XNsQVfgcxcl7sFtis38JzCGCV/46Sj/5bQd8gcH1nTTvYVyVTSDTAKfYTx7Zhvt3HOSGl0nZhu7Fp71oo1qdrZDQQt3uqIIngxDjXQ5P7W/BLx95EO9adAbyy1ed9sU6Gd0c4R0UouU11XclH+Di6nxnp9Nk4HC6ysihZtpwboEzdpCflh1FjP9NCH6D5pQv5QekSTUHex2yPhHgpJX88GRFSH+ArqQ2mAaBU+if8mX6HtIUPWnRA+wM9LXuxc8fvg9/2tfEKwUm1DFzfyoaVtdstyctWyFhFih+r0LdacYdlsI7+6K4/fc7sXrhD/CKV9yMcJkIChlRGC953DVkn1F2LjW1NbH3kVpDn0wzLazyvsgo+xpPcw5KQkX6lO80t2k+Vj/UIxl8F/ZNzM1PgMI/0Yf+1j14+OE78fUHdqK9Z9JU+Qg7zYRfj0qTySqqO5OG1Z3S9yU6kvY3deLWHz+On/z6+2g//Ccke5u5RUFOLk9LE0Y8n+xTb27njoNUwwimlpHEgqog9TkNbd8dUYINWAQsAhYBEwGOFDi9lOhtQceRP5LP/afD7w42dUzWorUXo/SimY0a9o81ktAxjggS8atA0cLV1XTDhU62R84h7DnWjs/+9HE89OJR3Pq6i9CwdANCRXUcVJRznlcXnbTPO9ktOFWezBUmkl2UTzWniC6fzD+XFefg+3zZt1x1y+DitSuNDVoELALzFQFhnbTknANUohnva0N/5yHs3vscvv7bx3D/C4fQ2N5NFT7KYicdp6x49lhCwt2ysQSFO+2kh+PswR9t68aPt+7CQ7uPYfPSB3Ht2ctwZkM1SovCQwuCk17tqAL7onHkB2JjDSScOJmNevGlrWhZBoSpysMai4BFwCLgIMDZEdl9kKTb2t2H5w424RfPHMQf9zbiBHlcXyQ2mdtDhiSSM+2i/rFehEomdbnNYqSRCOmOqzsy9tSIQgtQ151uSsJynL6nP4b9je040tKJX2zb72wznc4ZWrm7+q2X1fNEdRR93HGSynT3xvHsoWZs/NQPHLXiqdJZukXAIjC/ERDdb3EuTke5i1DkxyQbLdHtZlyNCASdo9HpJHGVLn4vK8JF6OoeoH9eGFmKCFFQ+P1u+Tr68fsp0Ca4M2F0oZZiEbAIWAQyR2Apk4puD5kJkr20YtVvuiQ7dKGJUZcXB4w2KnFUeIxOcYoiBYmwkFXkeTGnInvU5S5rsdZYBCwCFoEZjIDcpqT8XFz1C982w/IIGif+EUYYvBqvRFqQu1AJixUjbpvjs38sAhYBi4BFYKYg0M6GKA9XV/m2u41e/N9JYwoJdyYJa8Gm36xE/Xu9MluaRcAiYBGwCJw2BIQvC49WPp5SEAy1UOPVdchjCYkRCYcKUUeFg4TFv1UjrGsRsAhYBCwCMwIB4cvCx9VKo9QvrsnHNU5cNZJm+OyDEsV1IgxX48zChSYViBX63bTWWAQsAhYBi8DMQUD4ssm3lV8rTVqqNLPVEj9szJGEGeH2a0FauITFihHaDto/SMAai4BFwCJgETjtCDzGFghfFv6s/DtVo0x+PyqNKSQk0p1Ywm6aWYgKC0nzxTRpzXzWbxGwCFgELAJTg4DJj5WHK682XZO3C12MSXMIchrM3Ooq/lTWyeDxR/M3Ma6CdpNHGkuyCFgELAIWgelB4Hus5k5aFQgqKFK50ioVDuoKzTGphITGiytCQDKawkPpOhJRQfEII86jrZME1lgELAIWAYvAtCIg0/4fpJUDdMK3VVC4XUY58SoUUrm8U3H0SEIyewkEFQRmvPrFFSMNuY9WRhNWUBAEaywCFgGLwDQh8DjreRctb0UfFg7C/NXSO+wXXq2CQfxiNDwYGvw74BYSQlYBYSYUmhRgxplCw0zbz8AvaUtpz6RNlY5R1lgELAIWAYvABBEQ3vw9WhlBmAJCRw8SL9YMMzgsFCROjLqDoaG/IiTEmIxc/Bp2+53EQ/FeaTReGvN72gdol9DW01pjEbAIWAQsApOLgOxiei/tHbQJWlMQCNMXqzR6nbDSJSxxYoSmxvSPEAaaQFy3cNCwuLIOoWH1i5vKL2nX015BK+sVy2nLaAO01lgELAIWAYtAZgiILqZ2WjlJLQfl5BzEC7QqBMRVoaCu0swwkw0LBxUS6kqcKSQGhIGLUXcwdCqswkDjRRCIUYEgdPV7uUozyzFpUpbGqV9cMVrnYMj+tQhYBCwCcx8BYdAjmLQRVkZuum6/CgPT9fILkppX4sWKUXfYr1pgJcJkymZYM0m80pUmBUlFwvhNV8vS9KZgUJrklXRqNSyuGi1Hw9a1CFgELAJzDQGTn+qzCc2kK0P3cjWtxGXilzq0HPGb9Uh4hFEhMYJoBCSzMuqxCpIKVVCYTF+KErqWo3HqSryWn8qVNNZYBCwCFoG5joDwSTefNWnK2JWmrtLFHYsmcWLUHcvvJJQ/YwkJKUgZt/rNwocLGfJIAyW9CgV3vNDFSBrTOsQhmvi1TqVb1yJgEbAIzDcEhNea/FYFgeCg/kxcLUddya/lmjShm0bTjBASQvRi0Eo3XbMw8UucCgFtuFcaLV/TShoVGGZ6TaeuGWf9FgGLgEVgriEgPFSs27jpyl9NutLSuVK2phG/WZ/pl7hh42bC7rAkVJqXKzSTrmF1Jb8KBJNm+iWNGC/aYIz9axGwCFgE5h8CJkOXpzfDXn6leQkQk+Yuyy0gRoSFMbvNWDSNM92x/BLnFS91mnHaBk2r8Uq3rkXAImARmA8IuJm5+cwqBISWzm+WY6Z155WwKRRMv8QNM3AnYPwxmbWSleZ2JV5oJj2d351HwqbR/Epzh5VuXYuARcAiMNsRUMasrtfzjMXoJZ/mNf1SjpnPHSfxmk/8YtzhYcY+GD3yrxdjNmnqH8vVOClZ/O6w0sVNZcw87jRjxbnT2rBFwCJgETidCIxiwEONSUU322oye6FLHjOfO5wuvZYhrhqzPKWNYNrDxCFPKgZs0tWvrmRVv7pKM8OpaEJPZ9zlpEtv4y0CFgGLwExCwJMZp2mgm+lLcrdgEJo7nVcar/q9aFLeMEN3Ah5/xmLIZpz61dWiJOymSZzS1NX01rUIWAQsAhYBbwS8GL6kdAsGoSnTV1doYtzhVDQnsfzJlEmnSuema1jd4YqGPEJPFadp08VLukzSaHnWtQhYBCwCMwUBLyZtti1dvKSVNKnSpYobK71Z/yh/Nsx2rLRecUpTd1TlBkHTqGtEWa9FwCJgEZh3CChTV3csADSNumZaL5rEp6KbeR3/eJhyujyp4k266R/VKEuwCFgELAIWgZQIKINX1yvheONGlTURZp1J3ommyST/qIeyBIuARcAiMMsQSMXUU9G9Hi9d2nTxXmVO2tx+Nsw8m7SejbZEi4BFwCIwzxHIlOFnmi4lnFPFsCer3MkqJyUANsIiYBGwCMwQBCbM0Pkck1HGCDj+Py27rRdhGKqXAAAAAElFTkSuQmCC;" vertex="1" parent="WIyWlLk6GJQsqaUBKTNV-1">
          <mxGeometry x="430" y="680" width="393" height="123" as="geometry" />
        </mxCell>
        <mxCell id="ntf6u-JNqa4Ea9aM1wRL-30" style="edgeStyle=orthogonalEdgeStyle;rounded=0;orthogonalLoop=1;jettySize=auto;html=1;entryX=0.5;entryY=0;entryDx=0;entryDy=0;" edge="1" parent="WIyWlLk6GJQsqaUBKTNV-1" source="ntf6u-JNqa4Ea9aM1wRL-28" target="ntf6u-JNqa4Ea9aM1wRL-1">
          <mxGeometry relative="1" as="geometry" />
        </mxCell>
        <mxCell id="ntf6u-JNqa4Ea9aM1wRL-28" value="请选择状态" style="whiteSpace=wrap;html=1;rounded=1;" vertex="1" parent="WIyWlLk6GJQsqaUBKTNV-1">
          <mxGeometry x="260" y="160" width="120" height="60" as="geometry" />
        </mxCell>
        <mxCell id="ntf6u-JNqa4Ea9aM1wRL-33" value="游戏结束" style="whiteSpace=wrap;html=1;rounded=1;" vertex="1" parent="WIyWlLk6GJQsqaUBKTNV-1">
          <mxGeometry x="260" y="860" width="120" height="60" as="geometry" />
        </mxCell>
      </root>
    </mxGraphModel>
  </diagram>
</mxfile>
